<svg xmlns="http://www.w3.org/2000/svg" viewBox="0 0 256 256">
  <circle cx="128" cy="128" r="128" fill="#f5f5f4"/>
  <svg x="24" y="56" width="208" height="144" viewBox="0 0 840.23 587.74" fill="#1a1a1a">
    <g transform="matrix(3.24954,0,0,3.14642,-109.433,-54.095)">
      <g transform="translate(15.739,2.623)">
        <!-- body fill + outline (stacked for smooth rounded edges) -->
        <path d="m 91.953125,34.005859 c -26.55466,0.07151 -44.768341,21.809966 -48.832031,43.853516 -0.22299,0.27688 -19.84961,14.257813 -19.84961,14.257813 l 23.480469,14.460932 c 121.391197,164.21047 190.181637,52.1504 190.181637,52.1504 L 222.8457,144.47266 c -7.83047,4.04548 -16.09334,7.33052 -24.54101,9.81836 -38.56461,11.35724 -82.62311,6.805 -110.115237,-19.96875 -3.332066,-3.24486 -3.200208,-8.64687 0.285156,-11.72657 L 148.78906,69.285156 C 140.30662,60.194512 113.91021,33.946739 91.953125,34.005859 Z"/>
        <path d="m 91.118534,28.50112 c -12.756968,0.261029 -25.276257,5.51974 -34.516404,14.259728 -9.039404,8.380503 -15.340828,19.55109 -18.190306,31.495373 -0.618665,0.730136 -1.551685,1.100614 -2.264491,1.733503 -5.43172,3.933714 -10.977767,7.716889 -16.329911,11.756636 -2.739036,2.596668 -2.444026,7.69342 0.783963,9.773626 2.193207,1.568322 4.581198,2.806314 6.828181,4.272874 l 15.817399,9.70503 c 15.666748,20.85501 32.771801,40.84987 52.875197,57.60786 13.057918,10.87442 27.507118,20.36749 43.514438,26.32704 13.69711,5.0723 28.65553,7.3083 43.17388,5.06747 14.08194,-2.13413 27.41042,-8.31502 38.50994,-17.14962 7.82526,-6.16459 14.73736,-13.51383 20.26288,-21.79445 1.32401,-2.09506 1.39936,-4.9393 -0.0347,-7.00065 -1.25878,-1.80499 -3.02452,-3.17373 -4.50384,-4.78922 -3.13015,-3.12942 -4.97376,-4.73508 -8.16207,-7.7988 -1.2879,-0.54559 -1.79852,0.0207 -3.67046,1.05432 -1.87194,1.0336 -4.63221,2.45559 -7.68699,4.15743 -0.75539,0.92812 0.10543,2.08376 0.90144,2.64347 3.45091,3.49892 5.67323,5.40403 9.138,8.88931 -9.6397,12.49628 -22.97662,22.55173 -38.27667,27.06098 -9.38044,2.76362 -19.44353,3.35061 -29.08316,1.77988 -13.33065,-2.13367 -25.85667,-7.8029 -37.2373,-14.92383 -14.06899,-8.82184 -26.55183,-19.9399 -38.068345,-31.79531 -11.593726,-11.96214 -22.103769,-24.91653 -32.080167,-38.23255 -1.557364,-1.77924 -3.810421,-2.696083 -5.735529,-4.003015 -3.620432,-2.227906 -7.244204,-4.450415 -10.867746,-6.673294 4.207061,-3.044974 8.528844,-5.945872 12.603631,-9.163382 1.975211,-2.114963 1.853178,-5.185659 2.749404,-7.77524 3.192133,-11.231996 10.374901,-21.498325 20.396141,-27.692693 6.722473,-4.091708 14.674574,-6.281869 22.546619,-5.682878 5.726962,0.559607 11.246822,2.999877 16.308582,5.729886 11.33231,6.154022 20.22077,13.414392 29.25913,22.504013 1.08164,1.049908 2.05949,2.239889 3.21421,3.195284 1.17189,0.486259 2.03704,-0.69146 2.82718,-1.348329 2.23442,-2.045226 4.23685,-3.758083 6.8156,-6.025914 0.4432,-1.194779 -0.84587,-2.076803 -1.52874,-2.847883 -9.91703,-10.251763 -19.82097,-18.5021 -32.0823,-25.89055 -7.64655,-4.486593 -16.15615,-7.980696 -25.115477,-8.396478 -1.029806,-0.04606 -2.060694,-0.04936 -3.091209,-0.02963 z"/>
      </g>
      <g transform="translate(15.739,2.623)">
        <!-- wing fill + outline -->
        <path d="M 216.73837,19.901949 93.772421,128.59066 C 143.3096,176.83344 257.8231,147.19143 271.17553,72.263459 c -38.71726,24.40873 -70.63154,17.50444 -70.63154,17.50444 0,0 36.914,-39.35037 16.19438,-69.86595 z"/>
        <path d="m 215.52038,14.590906 c -2.74422,0.209053 -4.62709,2.427307 -6.57843,4.093848 -39.78468,35.028825 -79.57609,70.051228 -119.334273,105.109196 -2.477303,2.43617 -2.431303,6.9363 0.218977,9.23387 3.763973,3.73422 7.99351,6.99205 12.449596,9.86542 13.27582,8.50957 28.79392,13.13858 44.44524,14.58183 19.07986,1.79986 38.47323,-0.86954 56.58134,-7.00885 18.02164,-6.15586 34.92231,-16.03737 48.3161,-29.6195 10.61616,-10.80565 18.82541,-24.106707 22.90634,-38.719051 0.87706,-3.156383 1.683,-6.361369 1.99836,-9.625403 -0.0639,-3.601667 -3.61494,-6.743463 -7.22984,-6.208092 -2.5225,0.332998 -4.45947,2.147095 -6.64463,3.280256 -13.48113,7.823919 -28.53643,13.135732 -44.11625,14.492376 -1.88613,0.143479 -3.82647,0.272987 -5.73871,0.285258 7.09345,-9.9664 12.85569,-21.136309 15.11837,-33.230568 1.83929,-9.664362 0.97462,-20.04415 -3.58376,-28.870426 -1.14628,-2.220216 -2.35912,-4.487104 -4.16291,-6.249289 -1.29371,-1.038299 -2.99395,-1.531198 -4.64552,-1.410875 z M 214.1215,31.5079 c 2.4378,6.880036 2.05146,14.469179 0.0522,21.405964 -2.62085,9.288614 -7.46693,17.735764 -13.11962,25.520585 -2.06785,2.82273 -4.35195,5.480974 -6.56189,8.188577 -2.01659,3.108987 -0.64422,7.878044 2.86239,9.256722 2.35619,0.982658 4.96545,0.924437 7.46107,1.233264 15.47274,1.180786 31.04587,-1.831966 45.47758,-7.317768 3.09825,-1.191343 6.15073,-2.499713 9.14776,-3.92437 -5.61653,13.976764 -15.64466,26.020576 -27.64738,35.082116 -16.02357,12.17802 -35.35136,19.69217 -55.21357,22.67994 -16.31465,2.4009 -33.2488,1.67622 -49.02705,-3.3084 -8.40253,-2.68179 -16.40233,-6.63349 -23.38019,-12.05035 36.64571,-32.265703 73.2914,-64.53141 109.93709,-96.797119 z"/>
      </g>
      <!-- eye (white cutout) -->
      <path d="m 86.443909,79.547404 c 6.01111,8.62464 19.447201,5.67515 21.295021,-4.67264 1.84781,-10.34778 -9.737021,-17.76529 -18.361661,-11.75418 -5.34617,3.72612 -6.65948,11.08065 -2.93336,16.42682 z" fill="white"/>
    </g>
  </svg>
</svg>
