<?xml version="1.0" encoding="utf-8" standalone="no"?>
<!DOCTYPE svg PUBLIC "-//W3C//DTD SVG 1.1//EN"
  "http://www.w3.org/Graphics/SVG/1.1/DTD/svg11.dtd">
<svg xmlns:xlink="http://www.w3.org/1999/xlink" width="694.8pt" height="410.4pt" viewBox="0 0 694.8 410.4" xmlns="http://www.w3.org/2000/svg" version="1.1">
 <metadata>
  <rdf:RDF xmlns:dc="http://purl.org/dc/elements/1.1/" xmlns:cc="http://creativecommons.org/ns#" xmlns:rdf="http://www.w3.org/1999/02/22-rdf-syntax-ns#">
   <cc:Work>
    <dc:type rdf:resource="http://purl.org/dc/dcmitype/StillImage"/>
    <dc:date>2026-09-25T16:13:29.087998</dc:date>
    <dc:format>image/svg+xml</dc:format>
    <dc:creator>
     <cc:Agent>
      <dc:title>Matplotlib v3.11.1, https://matplotlib.org/</dc:title>
     </cc:Agent>
    </dc:creator>
   </cc:Work>
  </rdf:RDF>
 </metadata>
 <defs>
  <style type="text/css">*{stroke-linejoin: round; stroke-linecap: butt}</style>
 </defs>
 <g id="figure_1">
  <g id="patch_1">
   <path d="M 0 410.4
L 694.8 410.4
L 694.8 0
L 0 0
z
" style="fill: #ffffff"/>
  </g>
  <g id="axes_1">
   <g id="patch_2">
    <path d="M 40.2984 326.268
L 684.378 326.268
L 684.378 82.08
L 40.2984 82.08
z
" style="fill: #ffffff"/>
   </g>
   <g id="matplotlib.axis_1">
    <g id="xtick_1">
     <g id="line2d_1"/>
     <g id="text_1">
      <text style="font-size: 9.5px; font-family: 'Inter'; text-anchor: middle; fill: #1a1a1a" x="100.942258" y="338.971125" transform="rotate(-0 100.942258 338.971125)">EVA02 iNat21</text>
     </g>
    </g>
    <g id="xtick_2">
     <g id="line2d_2"/>
     <g id="text_2">
      <text style="font-size: 9.5px; font-family: 'Inter'; text-anchor: middle; fill: #1a1a1a" x="188.074239" y="338.971125" transform="rotate(-0 188.074239 338.971125)">BioCLIP 2.5</text>
     </g>
    </g>
    <g id="xtick_3">
     <g id="line2d_3"/>
     <g id="text_3">
      <text style="font-size: 9.5px; font-family: 'Inter'; text-anchor: middle; fill: #1a1a1a" x="275.206219" y="338.971125" transform="rotate(-0 275.206219 338.971125)">WingCLIP-0.1</text>
     </g>
    </g>
    <g id="xtick_4">
     <g id="line2d_4"/>
     <g id="text_4">
      <text style="font-size: 9.5px; font-family: 'Inter'; text-anchor: middle; fill: #1a1a1a" x="362.3382" y="338.971125" transform="rotate(-0 362.3382 338.971125)">WingCLIP-0.3</text>
     </g>
    </g>
    <g id="xtick_5">
     <g id="line2d_5"/>
     <g id="text_5">
      <text style="font-size: 9.5px; font-family: 'Inter'; text-anchor: middle; fill: #1a1a1a" x="449.470181" y="338.971125" transform="rotate(-0 449.470181 338.971125)">BioCLIP-2</text>
     </g>
    </g>
    <g id="xtick_6">
     <g id="line2d_6"/>
     <g id="text_6">
      <text style="font-size: 9.5px; font-family: 'Inter'; text-anchor: middle; fill: #1a1a1a" x="536.602161" y="338.971125" transform="rotate(-0 536.602161 338.971125)">BioCLIP iNat</text>
     </g>
    </g>
    <g id="xtick_7">
     <g id="line2d_7"/>
     <g id="text_7">
      <text style="font-size: 9.5px; font-family: 'Inter'; text-anchor: middle; fill: #1a1a1a" x="623.734142" y="338.971125" transform="rotate(-0 623.734142 338.971125)">BioCLIP</text>
     </g>
    </g>
   </g>
   <g id="matplotlib.axis_2">
    <g id="ytick_1">
     <g id="line2d_8">
      <path d="M 40.2984 326.268
L 684.378 326.268
" clip-path="url(#pe469fdb13b)" style="fill: none; stroke: #e2e0dc; stroke-linecap: square"/>
     </g>
     <g id="line2d_9"/>
     <g id="text_8">
      <text style="font-size: 9.5px; font-family: 'Inter'; text-anchor: end; fill: #5c5c5c" x="36.7984" y="330.869563" transform="rotate(-0 36.7984 330.869563)">60%</text>
     </g>
    </g>
    <g id="ytick_2">
     <g id="line2d_10">
      <path d="M 40.2984 295.7445
L 684.378 295.7445
" clip-path="url(#pe469fdb13b)" style="fill: none; stroke: #e2e0dc; stroke-linecap: square"/>
     </g>
     <g id="line2d_11"/>
     <g id="text_9">
      <text style="font-size: 9.5px; font-family: 'Inter'; text-anchor: end; fill: #5c5c5c" x="36.7984" y="300.346063" transform="rotate(-0 36.7984 300.346063)">65%</text>
     </g>
    </g>
    <g id="ytick_3">
     <g id="line2d_12">
      <path d="M 40.2984 265.221
L 684.378 265.221
" clip-path="url(#pe469fdb13b)" style="fill: none; stroke: #e2e0dc; stroke-linecap: square"/>
     </g>
     <g id="line2d_13"/>
     <g id="text_10">
      <text style="font-size: 9.5px; font-family: 'Inter'; text-anchor: end; fill: #5c5c5c" x="36.7984" y="269.822563" transform="rotate(-0 36.7984 269.822563)">70%</text>
     </g>
    </g>
    <g id="ytick_4">
     <g id="line2d_14">
      <path d="M 40.2984 234.6975
L 684.378 234.6975
" clip-path="url(#pe469fdb13b)" style="fill: none; stroke: #e2e0dc; stroke-linecap: square"/>
     </g>
     <g id="line2d_15"/>
     <g id="text_11">
      <text style="font-size: 9.5px; font-family: 'Inter'; text-anchor: end; fill: #5c5c5c" x="36.7984" y="239.299062" transform="rotate(-0 36.7984 239.299062)">75%</text>
     </g>
    </g>
    <g id="ytick_5">
     <g id="line2d_16">
      <path d="M 40.2984 204.174
L 684.378 204.174
" clip-path="url(#pe469fdb13b)" style="fill: none; stroke: #e2e0dc; stroke-linecap: square"/>
     </g>
     <g id="line2d_17"/>
     <g id="text_12">
      <text style="font-size: 9.5px; font-family: 'Inter'; text-anchor: end; fill: #5c5c5c" x="36.7984" y="208.775562" transform="rotate(-0 36.7984 208.775562)">80%</text>
     </g>
    </g>
    <g id="ytick_6">
     <g id="line2d_18">
      <path d="M 40.2984 173.6505
L 684.378 173.6505
" clip-path="url(#pe469fdb13b)" style="fill: none; stroke: #e2e0dc; stroke-linecap: square"/>
     </g>
     <g id="line2d_19"/>
     <g id="text_13">
      <text style="font-size: 9.5px; font-family: 'Inter'; text-anchor: end; fill: #5c5c5c" x="36.7984" y="178.252062" transform="rotate(-0 36.7984 178.252062)">85%</text>
     </g>
    </g>
    <g id="ytick_7">
     <g id="line2d_20">
      <path d="M 40.2984 143.127
L 684.378 143.127
" clip-path="url(#pe469fdb13b)" style="fill: none; stroke: #e2e0dc; stroke-linecap: square"/>
     </g>
     <g id="line2d_21"/>
     <g id="text_14">
      <text style="font-size: 9.5px; font-family: 'Inter'; text-anchor: end; fill: #5c5c5c" x="36.7984" y="147.728562" transform="rotate(-0 36.7984 147.728562)">90%</text>
     </g>
    </g>
    <g id="ytick_8">
     <g id="line2d_22">
      <path d="M 40.2984 112.6035
L 684.378 112.6035
" clip-path="url(#pe469fdb13b)" style="fill: none; stroke: #e2e0dc; stroke-linecap: square"/>
     </g>
     <g id="line2d_23"/>
     <g id="text_15">
      <text style="font-size: 9.5px; font-family: 'Inter'; text-anchor: end; fill: #5c5c5c" x="36.7984" y="117.205062" transform="rotate(-0 36.7984 117.205062)">95%</text>
     </g>
    </g>
    <g id="ytick_9">
     <g id="line2d_24">
      <path d="M 40.2984 82.08
L 684.378 82.08
" clip-path="url(#pe469fdb13b)" style="fill: none; stroke: #e2e0dc; stroke-linecap: square"/>
     </g>
     <g id="line2d_25"/>
     <g id="text_16">
      <text style="font-size: 9.5px; font-family: 'Inter'; text-anchor: end; fill: #5c5c5c" x="36.7984" y="86.681562" transform="rotate(-0 36.7984 86.681562)">100%</text>
     </g>
    </g>
   </g>
   <g id="patch_3">
    <path d="M 40.2984 326.268
L 684.378 326.268
" style="fill: none; stroke: #bdbab3; stroke-width: 0.8; stroke-linejoin: miter; stroke-linecap: square"/>
   </g>
   <g id="patch_4">
    <path d="M 69.574745 326.268
L 100.942258 326.268
L 100.942258 115.04538
L 69.574745 115.04538
z
" clip-path="url(#pe469fdb13b)" style="fill: url(#h55442bfa9f)"/>
   </g>
   <g id="patch_5">
    <path d="M 100.942258 326.268
L 132.309771 326.268
L 132.309771 85.498632
L 100.942258 85.498632
z
" clip-path="url(#pe469fdb13b)" style="fill: url(#had21703e29); opacity: 0.42"/>
   </g>
   <g id="text_17">
    <text style="font-size: 10.5px; font-family: 'Inter'; text-anchor: middle; fill: #1a1a1a" x="85.258502" y="106.407965" transform="rotate(-0 85.258502 106.407965)">94.6</text>
   </g>
   <g id="text_18">
    <text style="font-size: 10.5px; font-family: 'Inter'; text-anchor: middle; fill: #6b6862" x="116.626015" y="76.861217" transform="rotate(-0 116.626015 76.861217)">99.4</text>
   </g>
   <g id="patch_6">
    <path d="M 156.706726 326.268
L 188.074239 326.268
L 188.074239 141.234543
L 156.706726 141.234543
z
" clip-path="url(#pe469fdb13b)" style="fill: #d7d5d0"/>
   </g>
   <g id="patch_7">
    <path d="M 188.074239 326.268
L 219.441752 326.268
L 219.441752 93.923118
L 188.074239 93.923118
z
" clip-path="url(#pe469fdb13b)" style="fill: #d7d5d0; opacity: 0.42"/>
   </g>
   <g id="text_19">
    <text style="font-size: 10.5px; font-family: 'Inter'; text-anchor: middle; fill: #1a1a1a" x="172.390482" y="132.597128" transform="rotate(-0 172.390482 132.597128)">90.3</text>
   </g>
   <g id="text_20">
    <text style="font-size: 10.5px; font-family: 'Inter'; text-anchor: middle; fill: #6b6862" x="203.757995" y="85.285703" transform="rotate(-0 203.757995 85.285703)">98.1</text>
   </g>
   <g id="patch_8">
    <path d="M 243.838706 326.268
L 275.206219 326.268
L 275.206219 143.73747
L 243.838706 143.73747
z
" clip-path="url(#pe469fdb13b)" style="fill: #57a08b"/>
   </g>
   <g id="patch_9">
    <path d="M 275.206219 326.268
L 306.573732 326.268
L 306.573732 95.144058
L 275.206219 95.144058
z
" clip-path="url(#pe469fdb13b)" style="fill: #57a08b; opacity: 0.42"/>
   </g>
   <g id="text_21">
    <text style="font-weight: 700; font-size: 10.5px; font-family: 'Inter'; text-anchor: middle; fill: #1f6f5c" x="259.522463" y="135.100055" transform="rotate(-0 259.522463 135.100055)">89.9</text>
   </g>
   <g id="text_22">
    <text style="font-size: 10.5px; font-family: 'Inter'; text-anchor: middle; fill: #6b6862" x="290.889976" y="86.506643" transform="rotate(-0 290.889976 86.506643)">97.9</text>
   </g>
   <g id="patch_10">
    <path d="M 330.970687 326.268
L 362.3382 326.268
L 362.3382 162.417852
L 330.970687 162.417852
z
" clip-path="url(#pe469fdb13b)" style="fill: #1f6f5c"/>
   </g>
   <g id="patch_11">
    <path d="M 362.3382 326.268
L 393.705713 326.268
L 393.705713 100.455147
L 362.3382 100.455147
z
" clip-path="url(#pe469fdb13b)" style="fill: #1f6f5c; opacity: 0.42"/>
   </g>
   <g id="text_23">
    <text style="font-weight: 700; font-size: 10.5px; font-family: 'Inter'; text-anchor: middle; fill: #1f6f5c" x="346.654444" y="153.780437" transform="rotate(-0 346.654444 153.780437)">86.8</text>
   </g>
   <g id="text_24">
    <text style="font-size: 10.5px; font-family: 'Inter'; text-anchor: middle; fill: #6b6862" x="378.021956" y="91.817732" transform="rotate(-0 378.021956 91.817732)">97.0</text>
   </g>
   <g id="patch_12">
    <path d="M 418.102668 326.268
L 449.470181 326.268
L 449.470181 165.653343
L 418.102668 165.653343
z
" clip-path="url(#pe469fdb13b)" style="fill: #d7d5d0"/>
   </g>
   <g id="patch_13">
    <path d="M 449.470181 326.268
L 480.837694 326.268
L 480.837694 98.928972
L 449.470181 98.928972
z
" clip-path="url(#pe469fdb13b)" style="fill: #d7d5d0; opacity: 0.42"/>
   </g>
   <g id="text_25">
    <text style="font-size: 10.5px; font-family: 'Inter'; text-anchor: middle; fill: #1a1a1a" x="433.786424" y="157.015928" transform="rotate(-0 433.786424 157.015928)">86.3</text>
   </g>
   <g id="text_26">
    <text style="font-size: 10.5px; font-family: 'Inter'; text-anchor: middle; fill: #6b6862" x="465.153937" y="90.291557" transform="rotate(-0 465.153937 90.291557)">97.2</text>
   </g>
   <g id="patch_14">
    <path d="M 505.234648 326.268
L 536.602161 326.268
L 536.602161 228.959082
L 505.234648 228.959082
z
" clip-path="url(#pe469fdb13b)" style="fill: #d7d5d0"/>
   </g>
   <g id="patch_15">
    <path d="M 536.602161 326.268
L 567.969674 326.268
L 567.969674 145.263645
L 536.602161 145.263645
z
" clip-path="url(#pe469fdb13b)" style="fill: #d7d5d0; opacity: 0.42"/>
   </g>
   <g id="text_27">
    <text style="font-size: 10.5px; font-family: 'Inter'; text-anchor: middle; fill: #1a1a1a" x="520.918405" y="220.321667" transform="rotate(-0 520.918405 220.321667)">75.9</text>
   </g>
   <g id="text_28">
    <text style="font-size: 10.5px; font-family: 'Inter'; text-anchor: middle; fill: #6b6862" x="552.285918" y="136.62623" transform="rotate(-0 552.285918 136.62623)">89.7</text>
   </g>
   <g id="patch_16">
    <path d="M 592.366629 326.268
L 623.734142 326.268
L 623.734142 263.939013
L 592.366629 263.939013
z
" clip-path="url(#pe469fdb13b)" style="fill: #d7d5d0"/>
   </g>
   <g id="patch_17">
    <path d="M 623.734142 326.268
L 655.101655 326.268
L 655.101655 141.783966
L 623.734142 141.783966
z
" clip-path="url(#pe469fdb13b)" style="fill: #d7d5d0; opacity: 0.42"/>
   </g>
   <g id="text_29">
    <text style="font-size: 10.5px; font-family: 'Inter'; text-anchor: middle; fill: #1a1a1a" x="608.050385" y="255.301598" transform="rotate(-0 608.050385 255.301598)">70.2</text>
   </g>
   <g id="text_30">
    <text style="font-size: 10.5px; font-family: 'Inter'; text-anchor: middle; fill: #6b6862" x="639.417898" y="133.146551" transform="rotate(-0 639.417898 133.146551)">90.2</text>
   </g>
   <g id="text_31">
    <text style="font-size: 8.5px; font-family: 'Inter'; text-anchor: middle; fill: #ffffff" x="346.654444" y="314.450187" transform="rotate(-0 346.654444 314.450187)">top-1</text>
   </g>
   <g id="text_32">
    <text style="font-size: 8.5px; font-family: 'Inter'; text-anchor: middle; fill: #ffffff" x="378.021956" y="314.450187" transform="rotate(-0 378.021956 314.450187)">top-5</text>
   </g>
  </g>
  <g id="text_33">
   <text style="font-weight: 700; font-size: 16.5px; font-family: 'Inter Display'; text-anchor: start; fill: #1a1a1a" x="8.3376" y="27.475575" transform="rotate(-0 8.3376 27.475575)">Every bird model finds the species; they disagree on the order</text>
  </g>
  <g id="text_34">
   <text style="font-size: 10.5px; font-family: 'Inter'; text-anchor: start; fill: #6b6862" x="8.3376" y="47.928675" transform="rotate(-0 8.3376 47.928675)">Top-1 and top-5, zero-shot over 11,167 species</text>
  </g>
  <g id="text_35">
   <text style="font-size: 8.5px; font-family: 'Inter'; text-anchor: start; fill: #918e88" x="8.3376" y="397.05585" transform="rotate(-0 8.3376 397.05585)">NABirds, 48,527 images, zero-shot over 11,167 classes.  EVA02 iNat21 is supervised over a fixed 10,000-class head, not open-vocabulary.</text>
  </g>
 </g>
 <defs>
  <clipPath id="pe469fdb13b">
   <rect x="40.2984" y="82.08" width="644.0796" height="244.188"/>
  </clipPath>
 </defs>
 <defs>
  <pattern id="h55442bfa9f" patternUnits="userSpaceOnUse" x="0" y="0" width="72" height="72">
   <rect x="0" y="0" width="73" height="73" fill="#c9c6bf"/>
   <path d="M -36 36
L 36 -36
M -32 40
L 40 -32
M -28 44
L 44 -28
M -24 48
L 48 -24
M -20 52
L 52 -20
M -16 56
L 56 -16
M -12 60
L 60 -12
M -8 64
L 64 -8
M -4 68
L 68 -4
M 0 72
L 72 0
M 4 76
L 76 4
M 8 80
L 80 8
M 12 84
L 84 12
M 16 88
L 88 16
M 20 92
L 92 20
M 24 96
L 96 24
M 28 100
L 100 28
M 32 104
L 104 32
M 36 108
L 108 36
" style="fill: #ffffff; stroke: #ffffff; stroke-width: 1.0; stroke-linecap: butt; stroke-linejoin: miter"/>
  </pattern>
  <pattern id="had21703e29" patternUnits="userSpaceOnUse" x="0" y="0" width="72" height="72">
   <rect x="0" y="0" width="73" height="73" fill="#c9c6bf"/>
   <path d="M -36 36
L 36 -36
M -32 40
L 40 -32
M -28 44
L 44 -28
M -24 48
L 48 -24
M -20 52
L 52 -20
M -16 56
L 56 -16
M -12 60
L 60 -12
M -8 64
L 64 -8
M -4 68
L 68 -4
M 0 72
L 72 0
M 4 76
L 76 4
M 8 80
L 80 8
M 12 84
L 84 12
M 16 88
L 88 16
M 20 92
L 92 20
M 24 96
L 96 24
M 28 100
L 100 28
M 32 104
L 104 32
M 36 108
L 108 36
" style="fill: #ffffff; stroke: #ffffff; stroke-width: 1.0; stroke-linecap: butt; stroke-linejoin: miter; stroke-opacity: 0.42"/>
  </pattern>
 </defs>
</svg>
