<?xml version="1.0" encoding="UTF-8" standalone="no"?>
<!--Generator: Apple Native CoreSVG 341-->

<svg
   version="1.1"
   viewBox="0 0 3300 2200"
   id="svg33"
   sodipodi:docname="wingdex.bird.svg"
   inkscape:version="1.4.3 (0d15f75, 2025-12-25)"
   xmlns:inkscape="http://www.inkscape.org/namespaces/inkscape"
   xmlns:sodipodi="http://sodipodi.sourceforge.net/DTD/sodipodi-0.dtd"
   xmlns="http://www.w3.org/2000/svg"
   xmlns:svg="http://www.w3.org/2000/svg">
  <defs
     id="defs33">
    <inkscape:path-effect
       effect="offset"
       id="path-effect6"
       is_visible="true"
       lpeversion="1.3"
       linejoin_type="miter"
       unit="px"
       offset="1"
       miter_limit="4"
       attempt_force_join="false"
       update_on_knot_move="true" />
    <inkscape:path-effect
       effect="offset"
       id="path-effect3"
       is_visible="true"
       lpeversion="1.3"
       linejoin_type="miter"
       unit="px"
       offset="1"
       miter_limit="4"
       attempt_force_join="false"
       update_on_knot_move="true" />
    <inkscape:path-effect
       effect="offset"
       id="path-effect1"
       is_visible="true"
       lpeversion="1.3"
       linejoin_type="miter"
       unit="px"
       offset="0"
       miter_limit="4"
       attempt_force_join="false"
       update_on_knot_move="true" />
    <inkscape:path-effect
       effect="offset"
       id="path-effect35"
       is_visible="true"
       lpeversion="1.3"
       linejoin_type="miter"
       unit="px"
       offset="-1.5"
       miter_limit="4"
       attempt_force_join="false"
       update_on_knot_move="true" />
    <inkscape:path-effect
       effect="offset"
       id="path-effect33"
       is_visible="true"
       lpeversion="1.3"
       linejoin_type="miter"
       unit="px"
       offset="0.72768601"
       miter_limit="4"
       attempt_force_join="false"
       update_on_knot_move="true" />
  </defs>
  <sodipodi:namedview
     id="namedview33"
     pagecolor="#ffffff"
     bordercolor="#000000"
     borderopacity="0.25"
     inkscape:showpageshadow="2"
     inkscape:pageopacity="0.0"
     inkscape:pagecheckerboard="0"
     inkscape:deskcolor="#d1d1d1"
     inkscape:zoom="0.5"
     inkscape:cx="1366"
     inkscape:cy="650"
     inkscape:window-width="2288"
     inkscape:window-height="1189"
     inkscape:window-x="112"
     inkscape:window-y="30"
     inkscape:window-maximized="0"
     inkscape:current-layer="Symbols" />
  <!--glyph: "1015DF", point size: 100.0, font version: "21.1d1e1", template writer version: "138.0.0"-->
  <style
     id="style1">.SFSymbolsPreviewWireframe {fill:none;opacity:1.0;stroke:black;stroke-width:0.5}
</style>
  <g
     id="Notes"
     sodipodi:insensitive="true">
    <rect
       height="2200"
       id="artboard"
       style="opacity:1;fill:#ffffff"
       width="3300"
       x="0"
       y="0" />
    <line
       style="opacity:1;fill:none;stroke:#000000;stroke-width:0.5"
       x1="263"
       x2="3036"
       y1="292"
       y2="292"
       id="line1" />
    <text
       style="font-weight:bold;font-size:13px;font-family:sans-serif;fill:#000000;stroke:none"
       transform="translate(263,322)"
       id="text1">Weight/Scale Variations</text>
    <text
       style="font-size:13px;font-family:sans-serif;text-anchor:middle;fill:#000000;stroke:none"
       transform="translate(559.711,322)"
       id="text2">Ultralight</text>
    <text
       style="font-size:13px;font-family:sans-serif;text-anchor:middle;fill:#000000;stroke:none"
       transform="translate(856.422,322)"
       id="text3">Thin</text>
    <text
       style="font-size:13px;font-family:sans-serif;text-anchor:middle;fill:#000000;stroke:none"
       transform="translate(1153.13,322)"
       id="text4">Light</text>
    <text
       style="font-size:13px;font-family:sans-serif;text-anchor:middle;fill:#000000;stroke:none"
       transform="translate(1449.84,322)"
       id="text5">Regular</text>
    <text
       style="font-size:13px;font-family:sans-serif;text-anchor:middle;fill:#000000;stroke:none"
       transform="translate(1746.56,322)"
       id="text6">Medium</text>
    <text
       style="font-size:13px;font-family:sans-serif;text-anchor:middle;fill:#000000;stroke:none"
       transform="translate(2043.27,322)"
       id="text7">Semibold</text>
    <text
       style="font-size:13px;font-family:sans-serif;text-anchor:middle;fill:#000000;stroke:none"
       transform="translate(2339.98,322)"
       id="text8">Bold</text>
    <text
       style="font-size:13px;font-family:sans-serif;text-anchor:middle;fill:#000000;stroke:none"
       transform="translate(2636.69,322)"
       id="text9">Heavy</text>
    <text
       style="font-size:13px;font-family:sans-serif;text-anchor:middle;fill:#000000;stroke:none"
       transform="translate(2933.4,322)"
       id="text10">Black</text>
    <line
       style="opacity:1;fill:none;stroke:#000000;stroke-width:0.5"
       x1="263"
       x2="3036"
       y1="1903"
       y2="1903"
       id="line10" />
    <g
       transform="matrix(0.2,0,0,0.2,263,1933)"
       id="g10">
      <path
         d="m 46.2402,4.15039 c 21.7773,0 39.4531,-17.627 39.4531,-39.4043 0,-21.7773 -17.6758,-39.4043 -39.4531,-39.4043 -21.7285,0 -39.4043,17.627 -39.4043,39.4043 0,21.7773 17.6758,39.4043 39.4043,39.4043 z m 0,-7.42188 c -17.6758,0 -31.9336,-14.3066 -31.9336,-31.9824 0,-17.6758 14.2578,-31.9824 31.9336,-31.9824 17.6758,0 31.9824,14.3066 31.9824,31.9824 0,17.6758 -14.3066,31.9824 -31.9824,31.9824 z m 3.61328,-17.7734 v -28.4668 c 0,-2.24609 -1.46484,-3.75977 -3.71094,-3.75977 -2.14844,0 -3.61328,1.51367 -3.61328,3.75977 v 28.4668 c 0,2.19727 1.46484,3.71094 3.61328,3.71094 2.24609,0 3.71094,-1.51367 3.71094,-3.71094 z m -17.8223,-10.5957 h 28.418 c 2.19727,0 3.71094,-1.46484 3.71094,-3.61328 0,-2.19727 -1.51367,-3.71094 -3.71094,-3.71094 h -28.418 c -2.24609,0 -3.75977,1.51367 -3.75977,3.71094 0,2.14844 1.51367,3.61328 3.75977,3.61328 z"
         id="path10" />
    </g>
    <g
       transform="matrix(0.2,0,0,0.2,281.506,1933)"
       id="g11">
      <path
         d="m 58.5449,14.5508 c 27.4902,0 49.8047,-22.3145 49.8047,-49.8047 0,-27.4902 -22.3145,-49.8047 -49.8047,-49.8047 -27.4902,0 -49.8047,22.3145 -49.8047,49.8047 0,27.4902 22.3145,49.8047 49.8047,49.8047 z m 0,-8.30078 c -22.9492,0 -41.5039,-18.5547 -41.5039,-41.5039 0,-22.9492 18.5547,-41.5039 41.5039,-41.5039 22.9492,0 41.5039,18.5547 41.5039,41.5039 0,22.9492 -18.5547,41.5039 -41.5039,41.5039 z m 4.05273,-23.0957 v -36.9141 c 0,-2.49023 -1.70898,-4.19922 -4.15039,-4.19922 -2.39258,0 -4.05273,1.70898 -4.05273,4.19922 v 36.9141 c 0,2.44141 1.66016,4.15039 4.05273,4.15039 2.44141,0 4.15039,-1.66016 4.15039,-4.15039 z m -22.5586,-14.4043 h 36.9629 c 2.44141,0 4.15039,-1.61133 4.15039,-4.00391 0,-2.44141 -1.70898,-4.15039 -4.15039,-4.15039 h -36.9629 c -2.49023,0 -4.15039,1.70898 -4.15039,4.15039 0,2.39258 1.66016,4.00391 4.15039,4.00391 z"
         id="path11" />
    </g>
    <g
       transform="matrix(0.2,0,0,0.2,304.924,1933)"
       id="g12">
      <path
         d="m 74.8535,28.3203 c 35.1074,0 63.623,-28.4668 63.623,-63.5742 0,-35.1074 -28.5156,-63.623 -63.623,-63.623 -35.1074,0 -63.5742,28.5156 -63.5742,63.623 0,35.1074 28.4668,63.5742 63.5742,63.5742 z m 0,-9.08203 c -30.127,0 -54.4922,-24.3652 -54.4922,-54.4922 0,-30.127 24.3652,-54.4922 54.4922,-54.4922 30.127,0 54.4922,24.3652 54.4922,54.4922 0,30.127 -24.3652,54.4922 -54.4922,54.4922 z m 4.44336,-30.3223 v -48.4863 c 0,-2.73438 -1.85547,-4.63867 -4.54102,-4.63867 -2.58789,0 -4.44336,1.9043 -4.44336,4.63867 v 48.4863 c 0,2.68555 1.85547,4.58984 4.44336,4.58984 2.68555,0 4.54102,-1.85547 4.54102,-4.58984 z m -28.7109,-19.7754 h 48.4863 c 2.68555,0 4.58984,-1.80664 4.58984,-4.39453 0,-2.73438 -1.85547,-4.58984 -4.58984,-4.58984 h -48.4863 c -2.73438,0 -4.58984,1.85547 -4.58984,4.58984 0,2.58789 1.85547,4.39453 4.58984,4.39453 z"
         id="path12" />
    </g>
    <text
       style="font-weight:bold;font-size:13px;font-family:sans-serif;fill:#000000;stroke:none"
       transform="translate(263,1953)"
       id="text12">Design Variations</text>
    <text
       style="font-size:13px;font-family:sans-serif;fill:#000000;stroke:none"
       transform="translate(263,1971)"
       id="text13">Symbols are supported in up to nine weights and three scales.</text>
    <text
       style="font-size:13px;font-family:sans-serif;fill:#000000;stroke:none"
       transform="translate(263,1989)"
       id="text14">For optimal layout with text and other symbols, vertically align</text>
    <text
       style="font-size:13px;font-family:sans-serif;fill:#000000;stroke:none"
       transform="translate(263,2007)"
       id="text15">symbols with the adjacent text.</text>
    <line
       style="opacity:1;fill:none;stroke:#00aeef;stroke-width:0.5"
       x1="776"
       x2="776"
       y1="1919"
       y2="1933"
       id="line15" />
    <g
       transform="matrix(0.2,0,0,0.2,776,1933)"
       id="g15">
      <path
         d="m 16.5527,0.78125 c 2.58789,0 3.85742,-0.976562 4.78516,-3.71094 l 20.5566,-57.5195 h 0.244141 l 20.6055,57.5195 c 0.927734,2.73438 2.19727,3.71094 4.73633,3.71094 2.58789,0 4.24805,-1.5625 4.24805,-4.00391 0,-0.830078 -0.146484,-1.61133 -0.537109,-2.63672 l -22.9004,-60.9863 c -1.12305,-2.97852 -3.125,-4.49219 -6.25,-4.49219 -3.02734,0 -5.07812,1.46484 -6.15234,4.44336 l -22.9004,61.084 c -0.390625,1.02539 -0.537109,1.80664 -0.537109,2.63672 0,2.44141 1.5625,3.95508 4.10156,3.95508 z m 10.2051,-20.9473 h 30.6641 c 2.00195,0 3.66211,-1.66016 3.66211,-3.66211 0,-2.05078 -1.66016,-3.66211 -3.66211,-3.66211 H 26.7578 c -2.00195,0 -3.66211,1.61133 -3.66211,3.66211 0,2.00195 1.66016,3.66211 3.66211,3.66211 z"
         id="path15" />
    </g>
    <line
       style="opacity:1;fill:none;stroke:#00aeef;stroke-width:0.5"
       x1="792.836"
       x2="792.836"
       y1="1919"
       y2="1933"
       id="line16" />
    <text
       style="font-weight:bold;font-size:13px;font-family:sans-serif;fill:#000000;stroke:none"
       transform="translate(776,1953)"
       id="text16">Margins</text>
    <text
       style="font-size:13px;font-family:sans-serif;fill:#000000;stroke:none"
       transform="translate(776,1971)"
       id="text17">Leading and trailing margins on the left and right side of each symbol</text>
    <text
       style="font-size:13px;font-family:sans-serif;fill:#000000;stroke:none"
       transform="translate(776,1989)"
       id="text18">can be adjusted by modifying the x-location of the margin guidelines.</text>
    <text
       style="font-size:13px;font-family:sans-serif;fill:#000000;stroke:none"
       transform="translate(776,2007)"
       id="text19">Modifications are automatically applied proportionally to all</text>
    <text
       style="font-size:13px;font-family:sans-serif;fill:#000000;stroke:none"
       transform="translate(776,2025)"
       id="text20">scales and weights.</text>
    <g
       transform="matrix(0.2,0,0,0.2,1289,1933)"
       id="g20">
      <path
         d="m 14.209,13.1348 7.86133,7.86133 c 4.29688,4.39453 9.32617,4.10156 13.8672,-1.02539 l 60.6934,-68.2129 -4.88281,-4.88281 -60.2539,67.6758 c -1.80664,1.95312 -3.4668,2.44141 -5.81055,0.09766 L 20.50789,9.5215362 c -2.29492,-2.29492 -1.80664,-3.95508 0.195312,-5.81055 l 67.4805,-62.1582002 -4.88281,-4.83398 -68.0664,62.5977002 c -4.98047,4.58984 -5.32227,9.47266 -1.02539,13.8183998 z m 44.873,-97.4609 c -2.05078,2.00195 -2.24609,4.88281 -1.07422,6.78711 1.12305,1.80664 3.4668,3.02734 6.5918,2.24609 5.85938,-1.66016 12.5977,-2.39258 18.8965,0.927734 l -2.68555,7.12891 c -1.61133,4.00391 -0.732422,6.88477 1.70898,9.42383 l 10.2539,10.3027 c 2.34375,2.39258 4.54102,2.44141 7.08008,1.95312 l 4.44336,-0.732422 2.58789,2.53906 -0.19531,2.24609 c -0.0977,2.29492 0.53711,4.29688 2.7832,6.49414 l 3.36914,3.32031 c 2.29492,2.29492 5.51758,2.49023 7.8125,0.195312 l 12.9883,-13.0371 c 2.29492,-2.34375 2.14844,-5.37109 -0.19531,-7.66602 l -3.41797,-3.41797 c -2.19727,-2.19727 -4.05273,-3.02734 -6.34766,-2.88086 l -2.34375,0.244141 -2.44141,-2.44141 1.02539,-4.6875 c 0.63476,-2.73438 -0.24415,-4.98047 -2.88086,-7.61719 l -11.2793,-11.1816 c -12.939504,-12.8418 -35.595704,-11.0352 -46.679704,-0.146484 z m 7.08008,2.05078 c 8.78906,-6.39648 25.9766,-5.66406 33.6914,1.95312 l 12.3047,12.207 c 1.02539,1.02539 1.2207,1.80664 0.92773,3.32031 l -1.46484,6.64062 6.73828,6.68945 4.39453,-0.244141 c 1.12305,-0.04883 1.51367,0.04883 2.34375,0.878906 l 2.53906,2.49023 -10.8398,10.8398 -2.49023,-2.49023 c -0.83007,-0.878906 -0.97656,-1.2207 -0.92773,-2.39258 l 0.29297,-4.3457 -6.68945,-6.73828 -6.83594,1.17188 c -1.416021,0.292969 -2.050781,0.195312 -3.173831,-0.878906 l -8.93555,-8.88672 c -1.07422,-1.02539 -1.17188,-1.70898 -0.488281,-3.36914 l 4.58984,-11.4746 c -6.10352,-6.34766 -17.041,-7.51953 -25.5859,-4.58984 -0.683594,0.244141 -0.927734,-0.390625 -0.390625,-0.78125 z"
         id="path20" />
    </g>
    <text
       style="font-weight:bold;font-size:13px;font-family:sans-serif;fill:#000000;stroke:none"
       transform="translate(1289,1953)"
       id="text21">Exporting</text>
    <text
       style="font-size:13px;font-family:sans-serif;fill:#000000;stroke:none"
       transform="translate(1289,1971)"
       id="text22">Symbols should be outlined when exporting to ensure the</text>
    <text
       style="font-size:13px;font-family:sans-serif;fill:#000000;stroke:none"
       transform="translate(1289,1989)"
       id="text23">design is preserved when submitting to Xcode.</text>
    <text
       id="template-version"
       style="font-size:13px;font-family:sans-serif;text-anchor:end;fill:#000000;stroke:none"
       transform="translate(3036,1933)">Template v.7.0</text>
    <text
       style="font-size:13px;font-family:sans-serif;text-anchor:end;fill:#000000;stroke:none"
       transform="translate(3036,1951)"
       id="text24">Requires Xcode 26 or greater</text>
    <text
       id="descriptive-name"
       style="font-size:13px;font-family:sans-serif;text-anchor:end;fill:#000000;stroke:none"
       transform="translate(3036,1969)">Generated from bird</text>
    <text
       style="font-size:13px;font-family:sans-serif;text-anchor:end;fill:#000000;stroke:none"
       transform="translate(3036,1987)"
       id="text25">Typeset at 100.0 points</text>
    <text
       style="font-size:13px;font-family:sans-serif;fill:#000000;stroke:none"
       transform="translate(263,726)"
       id="text26">Small</text>
    <text
       style="font-size:13px;font-family:sans-serif;fill:#000000;stroke:none"
       transform="translate(263,1156)"
       id="text27">Medium</text>
    <text
       style="font-size:13px;font-family:sans-serif;fill:#000000;stroke:none"
       transform="translate(263,1586)"
       id="text28">Large</text>
  </g>
  <g
     id="Guides"
     sodipodi:insensitive="true">
    <g
       id="H-reference"
       style="fill:#27aae1;stroke:none"
       transform="translate(339,696)">
      <path
         d="M 0.993654,0 H 3.63775 L 29.3281,-67.1323 h 0.7022 V -70.459 H 28.1226 Z M 11.6885,-24.4799 h 35.293 l -0.75,-2.2486 H 12.4385 Z M 55.1196,0 h 2.6441 L 30.6382,-70.459 h -1.2056 v 3.3267 z"
         id="path28" />
    </g>
    <line
       id="Baseline-S"
       style="opacity:1;fill:none;stroke:#27aae1;stroke-width:0.5"
       x1="263"
       x2="3036"
       y1="696"
       y2="696" />
    <line
       id="Capline-S"
       style="opacity:1;fill:none;stroke:#27aae1;stroke-width:0.5"
       x1="263"
       x2="3036"
       y1="625.54102"
       y2="625.54102" />
    <g
       id="g29"
       style="fill:#27aae1;stroke:none"
       transform="translate(339,1126)">
      <path
         d="M 0.993654,0 H 3.63775 L 29.3281,-67.1323 h 0.7022 V -70.459 H 28.1226 Z M 11.6885,-24.4799 h 35.293 l -0.75,-2.2486 H 12.4385 Z M 55.1196,0 h 2.6441 L 30.6382,-70.459 h -1.2056 v 3.3267 z"
         id="path29" />
    </g>
    <line
       id="Baseline-M"
       style="opacity:1;fill:none;stroke:#27aae1;stroke-width:0.5"
       x1="263"
       x2="3036"
       y1="1126"
       y2="1126" />
    <line
       id="Capline-M"
       style="opacity:1;fill:none;stroke:#27aae1;stroke-width:0.5"
       x1="263"
       x2="3036"
       y1="1055.54"
       y2="1055.54" />
    <g
       id="g30"
       style="fill:#27aae1;stroke:none"
       transform="translate(339,1556)">
      <path
         d="M 0.993654,0 H 3.63775 L 29.3281,-67.1323 h 0.7022 V -70.459 H 28.1226 Z M 11.6885,-24.4799 h 35.293 l -0.75,-2.2486 H 12.4385 Z M 55.1196,0 h 2.6441 L 30.6382,-70.459 h -1.2056 v 3.3267 z"
         id="path30" />
    </g>
    <line
       id="Baseline-L"
       style="opacity:1;fill:none;stroke:#27aae1;stroke-width:0.5"
       x1="263"
       x2="3036"
       y1="1556"
       y2="1556" />
    <line
       id="Capline-L"
       style="opacity:1;fill:none;stroke:#27aae1;stroke-width:0.5"
       x1="263"
       x2="3036"
       y1="1485.54"
       y2="1485.54" />
    <line
       id="right-margin-Black-S"
       style="opacity:1;fill:none;stroke:#00aeef;stroke-width:0.5"
       x1="2994"
       x2="2994"
       y1="600.78497"
       y2="720.12097" />
    <line
       id="left-margin-Black-S"
       style="opacity:1;fill:none;stroke:#00aeef;stroke-width:0.5"
       x1="2872.8"
       x2="2872.8"
       y1="600.78497"
       y2="720.12097" />
    <line
       id="right-margin-Regular-S"
       style="opacity:1;fill:none;stroke:#00aeef;stroke-width:0.5"
       x1="1505.26"
       x2="1505.26"
       y1="600.78497"
       y2="720.12097" />
    <line
       id="left-margin-Regular-S"
       style="opacity:1;fill:none;stroke:#00aeef;stroke-width:0.5"
       x1="1394.42"
       x2="1394.42"
       y1="600.78497"
       y2="720.12097" />
    <line
       id="right-margin-Ultralight-S"
       style="opacity:1;fill:none;stroke:#00aeef;stroke-width:0.5"
       x1="611.271"
       x2="611.271"
       y1="600.78497"
       y2="720.12097" />
    <line
       id="left-margin-Ultralight-S"
       style="opacity:1;fill:none;stroke:#00aeef;stroke-width:0.5"
       x1="508.151"
       x2="508.151"
       y1="600.78497"
       y2="720.12097" />
  </g>
  <g
     id="Symbols">
    <g
       id="Black-S"
       transform="matrix(1.1544365,0,0,1.1633913,3971.1825,781.86984)">
      <path
         id="path8-50"
         style="display:inline;fill:none;stroke:#000000;stroke-width:0.468505;stroke-dasharray:none;stroke-opacity:1"
         d="m -928.46411,-117.67512 c 2.3324,3.2583 7.5481,2.147 8.2661,-1.76523 0.718,-3.91223 -3.7799,-6.71695 -7.1251,-4.44143 -2.0762,1.40991 -2.5847,4.18817 -1.1371,6.21043 z m 56.6812,-23.57338 a 2.0684667,2.0147053 0 0 0 -1.3795,0.50461 l -47.7183,41.088134 a 2.0684667,2.0147053 0 0 0 -0.073,2.95628 c 10.3345,9.80515 26.9987,11.52422 41.7186,7.30204 14.7199,-4.22219 27.8486,-14.590224 30.6117,-29.683504 a 2.0684667,2.0147053 0 0 0 -3.1399,-2.06044 c -7.2222,4.43386 -13.7459,5.99586 -18.4495,6.46836 -1.5135,0.15119 -2.7315,0.176 -3.8104,0.16088 1.2341,-1.62915 2.7047,-3.76735 3.9698,-6.30746 2.736,-5.47714 4.5517,-12.98388 -0.024,-19.54585 a 2.0684667,2.0147053 0 0 0 -1.4545,-0.86659 2.0684667,2.0147053 0 0 0 -0.2511,-0.0165 z m -0.5844,5.20321 c 1.9365,4.44521 0.6794,9.27508 -1.4124,13.46325 -2.4178,4.84209 -5.8054,8.3807 -5.8054,8.3807 a 2.0684667,2.0147053 0 0 0 1.0716,3.34936 c 0,0 3.4771,0.71385 8.72,0.18465 4.2495,-0.42712 9.7791,-1.68636 15.872,-4.68763 -3.9507,10.88621 -14.4635,18.636164 -26.4862,22.083454 -12.7833,3.66654 -26.9482,2.30215 -35.9866,-4.87594 z m -47.854,0.1282 c -11.0796,0.0303 -18.7132,8.52754 -20.7506,17.3877 -0.1901,0.1323 -0.3765,0.26838 -0.6442,0.45359 -0.7218,0.50651 -1.6804,1.17556 -2.6351,1.84461 -1.9132,1.33431 -3.8148,2.65351 -3.8148,2.65351 a 2.0684667,2.0147053 0 0 0 0.1164,3.35659 l 8.7823,5.27679 c 11.7976,15.471274 22.4077,24.603594 31.8381,29.521294 9.5002,4.95171 17.8516,5.5754 24.6042,4.05209 13.5091,-3.04285 20.5334,-14.32973 20.5334,-14.32973 a 2.0684667,2.0147053 0 0 0 -0.2911,-2.47209 l -5.045,-4.97439 c -1.2535,0.69551 -2.542,1.34566 -3.8537,1.93911 l 4.7308,4.66444 c -1.9871,2.61193 -7.7074,9.15122 -17.0057,11.24531 -5.8096,1.30785 -12.9658,0.8845 -21.717,-3.67788 -8.7551,-4.56238 -19.0625,-13.33183 -30.7204,-28.685924 a 2.0684667,2.0147053 0 0 0 -0.5783,-0.51786 l -6.4576,-3.87821 c 0.5705,-0.39689 0.6403,-0.44226 1.2846,-0.89206 0.9585,-0.66905 1.921,-1.33811 2.6505,-1.85218 0.3648,-0.25703 0.6714,-0.47249 0.8965,-0.63502 0.1125,-0.0794 0.2018,-0.14742 0.2794,-0.20034 0.039,-0.0264 0.07,-0.0529 0.1086,-0.0832 0.02,-0.0151 0.043,-0.0303 0.078,-0.0605 0.035,-0.0303 0.031,0.0227 0.2795,-0.27972 a 2.0684667,2.0147053 0 0 0 0.4191,-0.89584 c 1.4242,-7.50695 7.7422,-14.90051 16.9242,-14.92696 4.1525,-0.0113 9.7602,3.26586 14.1028,6.76986 2.8291,2.28308 5.1305,4.56617 6.3956,5.88158 l 3.1007,-2.67241 c -1.3388,-1.3948 -3.807,-3.85175 -6.8573,-6.3125 -4.6454,-3.74591 -10.6024,-7.71484 -16.7535,-7.69972 z" />
    </g>
    <g
       id="Regular-S"
       transform="translate(1280.42,696)"
       style="fill:none">
      <path
         id="path8"
         style="display:inline;fill:none;stroke:#000000;stroke-width:0.497205;stroke-dasharray:none;stroke-opacity:1"
         d="m 137.5021,-50.233698 c 2.47511,3.458074 8.01014,2.278638 8.77203,-1.873457 0.76189,-4.152095 -4.01125,-7.128767 -7.56124,-4.713732 -2.2033,1.496359 -2.7428,4.444949 -1.20667,6.591201 z m 60.15027,-25.018674 a 2.1950653,2.1382288 0 0 0 -1.46387,0.535535 l -50.63888,43.607285 a 2.1950653,2.1382288 0 0 0 -0.0778,3.137536 c 10.96709,10.406314 28.65129,12.230784 44.27209,7.749731 15.62079,-4.481054 29.553,-15.484756 32.48524,-31.503419 a 2.1950653,2.1382288 0 0 0 -3.33212,-2.186767 c -7.6642,4.705708 -14.58722,6.363475 -19.57863,6.864936 -1.60614,0.160467 -2.89875,0.186797 -4.04364,0.17075 1.30962,-1.729037 2.8702,-3.998333 4.21277,-6.694186 2.90342,-5.812933 4.83025,-13.779927 -0.0253,-20.744215 a 2.1950653,2.1382288 0 0 0 -1.54359,-0.919722 2.1950653,2.1382288 0 0 0 -0.26633,-0.01746 z m -0.62015,5.522219 c 2.05504,4.717743 0.7209,9.843742 -1.49887,14.288691 -2.56572,5.13897 -6.16073,8.894536 -6.16073,8.894536 a 2.1950653,2.1382288 0 0 0 1.13727,3.554709 c 0,0 3.68988,0.757611 9.25373,0.195975 4.50956,-0.453321 10.37758,-1.789763 16.84334,-4.975041 -4.19245,11.553655 -15.34866,19.778755 -28.10722,23.437413 -13.56575,3.891335 -28.59755,2.443293 -38.18912,-5.174899 z m -50.7828,0.136057 c -11.75781,0.03209 -19.85855,9.050365 -22.02067,18.453757 -0.20179,0.140409 -0.39947,0.28483 -0.68364,0.481402 -0.76601,0.537566 -1.78323,1.247635 -2.79634,1.957703 -2.03033,1.416126 -4.04831,2.816204 -4.04831,2.816204 a 2.1950653,2.1382288 0 0 0 0.12355,3.562377 l 9.31976,5.600314 c 12.5197,16.419832 23.77919,26.112066 33.78671,31.3312704 10.08165,5.25530901 18.94428,5.91723724 26.11016,4.3005276 14.33588,-3.2294074 21.79004,-15.208303 21.79004,-15.208303 a 2.1950653,2.1382288 0 0 0 -0.30888,-2.623643 l -5.35381,-5.279379 c -1.33022,0.73815 -2.69751,1.428161 -4.0895,2.057995 l 5.02024,4.950421 c -2.10858,2.772075 -8.17899,9.7122929 -18.04649,11.934767 -6.16513,1.3880435 -13.75931,0.9387346 -23.04612,-3.9033707 -9.29094,-4.8421053 -20.2292,-14.1492173 -32.60064,-30.4446873 a 2.1950653,2.1382288 0 0 0 -0.61363,-0.549601 l -6.85288,-4.11599 c 0.60539,-0.421227 0.67952,-0.469367 1.36316,-0.946758 1.01723,-0.710068 2.03857,-1.420137 2.81281,-1.965726 0.38713,-0.272795 0.71247,-0.501461 0.95134,-0.673964 0.11943,-0.08425 0.21415,-0.156455 0.29652,-0.212619 0.0412,-0.02808 0.0741,-0.05616 0.11531,-0.08826 0.0206,-0.01605 0.0453,-0.03209 0.0824,-0.06419 0.0371,-0.03209 0.0329,0.02407 0.29651,-0.296865 a 2.1950653,2.1382288 0 0 0 0.44478,-0.950769 c 1.51143,-7.967209 8.21605,-15.814068 17.96,-15.842149 4.40661,-0.01204 10.35758,3.466097 14.96598,7.18493 3.00226,2.423058 5.44442,4.846117 6.787,6.242184 l 3.29054,-2.836263 c -1.42083,-1.480312 -4.04008,-4.087908 -7.27708,-6.699516 -4.92963,-3.975581 -11.25125,-8.187851 -17.77879,-8.171805 z" />
    </g>
    <g
       id="Ultralight-S"
       transform="matrix(0.96434465,0,0,0.95124179,-43.522638,789.75208)">
      <path
         id="path8-5"
         style="display:inline;fill:none;stroke:#000000;stroke-width:0.477735;stroke-dasharray:none;stroke-opacity:1"
         d="m 595.22458,-147.54103 c 2.3782,3.3226 7.6965,2.18937 8.4287,-1.80007 0.732,-3.98944 -3.8543,-6.84949 -7.2653,-4.52907 -2.1171,1.43773 -2.6355,4.27082 -1.1595,6.333 z m 57.7959,-24.03858 a 2.1091494,2.0544644 0 0 0 -1.4066,0.51456 l -48.6568,41.89898 a 2.1091494,2.0544644 0 0 0 -0.075,3.01463 c 10.5378,9.99864 27.5299,11.75164 42.5392,7.44613 15.0094,-4.3055 28.3963,-14.87815 31.2138,-30.26928 a 2.1091494,2.0544644 0 0 0 -3.2017,-2.1011 c -7.3642,4.52136 -14.0163,6.11418 -18.8124,6.596 -1.5432,0.15418 -2.7852,0.17949 -3.8853,0.16406 1.2584,-1.6613 2.7578,-3.8417 4.0479,-6.43194 2.7898,-5.58521 4.6412,-13.2401 -0.024,-19.93157 a 2.1091494,2.0544644 0 0 0 -1.4831,-0.88369 2.1091494,2.0544644 0 0 0 -0.2559,-0.0168 z m -0.5958,5.30589 c 1.9746,4.53293 0.6926,9.45811 -1.4403,13.72894 -2.4653,4.93765 -5.9196,8.5461 -5.9196,8.5461 a 2.1091494,2.0544644 0 0 0 1.0928,3.41545 c 0,0 3.5455,0.72793 8.8915,0.1883 4.3331,-0.43557 9.9715,-1.71966 16.1841,-4.78016 -4.0283,11.10105 -14.7479,19.00393 -27.0071,22.51927 -13.0347,3.73889 -27.4782,2.34758 -36.6943,-4.97218 z m -48.7952,0.13072 c -11.2976,0.0308 -19.0813,8.69582 -21.1588,17.73085 -0.1938,0.1349 -0.3838,0.27366 -0.6568,0.46254 -0.7361,0.51651 -1.7135,1.19875 -2.6869,1.88101 -1.9509,1.36065 -3.8899,2.70588 -3.8899,2.70588 a 2.1091494,2.0544644 0 0 0 0.1188,3.42282 l 8.9549,5.38093 c 12.0296,15.77659 22.8484,25.08913 32.4643,30.10387 9.6871,5.049437 18.2027,5.685437 25.0882,4.13206 13.7747,-3.10289 20.9372,-14.61252 20.9372,-14.61252 a 2.1091494,2.0544644 0 0 0 -0.2968,-2.52087 l -5.1443,-5.07255 c -1.2781,0.70923 -2.5919,1.3722 -3.9294,1.97737 l 4.8238,4.75649 c -2.0262,2.66347 -7.859,9.33181 -17.3402,11.46722 -5.9239,1.33367 -13.2207,0.90197 -22.1441,-3.75045 -8.9273,-4.65242 -19.4374,-13.59493 -31.3246,-29.25203 a 2.1091494,2.0544644 0 0 0 -0.5897,-0.52807 l -6.5846,-3.95475 c 0.5817,-0.40473 0.6529,-0.45098 1.3098,-0.90967 0.9774,-0.68225 1.9588,-1.3645 2.7027,-1.88872 0.3719,-0.26211 0.6846,-0.48182 0.9141,-0.64756 0.1148,-0.081 0.2058,-0.15033 0.2849,-0.20429 0.039,-0.027 0.071,-0.0539 0.1108,-0.0848 0.02,-0.0154 0.043,-0.0308 0.079,-0.0617 0.035,-0.0308 0.032,0.0231 0.2849,-0.28523 a 2.1091494,2.0544644 0 0 0 0.4273,-0.91352 c 1.4523,-7.6551 7.8945,-15.19456 17.2571,-15.22154 4.2341,-0.0115 9.9522,3.33032 14.3801,6.90346 2.8848,2.32813 5.2314,4.65627 6.5214,5.99765 l 3.1618,-2.72516 c -1.3653,-1.42231 -3.8819,-3.92776 -6.9922,-6.43705 -4.7368,-3.81984 -10.811,-7.8671 -17.083,-7.85169 z" />
    </g>
  </g>
</svg>
