<?xml version="1.0" encoding="UTF-8"?>
<!--Generator: Apple Native CoreSVG 341-->
<!DOCTYPE svg
PUBLIC "-//W3C//DTD SVG 1.1//EN"
       "http://www.w3.org/Graphics/SVG/1.1/DTD/svg11.dtd">
<svg version="1.1" xmlns="http://www.w3.org/2000/svg" xmlns:xlink="http://www.w3.org/1999/xlink" viewBox="0 0 3300 2200">
 <!--glyph: "", point size: 100.0, font version: "21.1d1e1", template writer version: "138.0.0"-->
 <style>.defaults {-sfsymbols-variable-value-mode:color;-sfsymbols-draw-reverses-motion-groups:true}

.monochrome-0 {-sfsymbols-motion-group:1;-sfsymbols-layer-tags:245ce614e3c7fee3}
.monochrome-1 {-sfsymbols-motion-group:0;-sfsymbols-layer-tags:245ce614e3c7fee3}

.multicolor-0:custom {fill:#2D6A46;-sfsymbols-motion-group:1;-sfsymbols-layer-tags:245ce614e3c7fee3}
.multicolor-1:custom {fill:#539739;-sfsymbols-motion-group:0;-sfsymbols-layer-tags:245ce614e3c7fee3}

.hierarchical-0:primary {-sfsymbols-motion-group:1;-sfsymbols-layer-tags:245ce614e3c7fee3}
.hierarchical-1:secondary {-sfsymbols-motion-group:0;-sfsymbols-layer-tags:245ce614e3c7fee3}

.SFSymbolsPreviewWireframe {fill:none;opacity:1.0;stroke:black;stroke-width:0.5}
</style>
 <g id="Notes">
  <rect height="2200" id="artboard" style="fill:white;opacity:1" width="3300" x="0" y="0"/>
  <line style="fill:none;stroke:black;opacity:1;stroke-width:0.5;" x1="263" x2="3036" y1="292" y2="292"/>
  <text style="stroke:none;fill:black;font-family:sans-serif;font-size:13;font-weight:bold;" transform="matrix(1 0 0 1 263 322)">Weight/Scale Variations</text>
  <text style="stroke:none;fill:black;font-family:sans-serif;font-size:13;text-anchor:middle;" transform="matrix(1 0 0 1 559.711 322)">Ultralight</text>
  <text style="stroke:none;fill:black;font-family:sans-serif;font-size:13;text-anchor:middle;" transform="matrix(1 0 0 1 856.422 322)">Thin</text>
  <text style="stroke:none;fill:black;font-family:sans-serif;font-size:13;text-anchor:middle;" transform="matrix(1 0 0 1 1153.13 322)">Light</text>
  <text style="stroke:none;fill:black;font-family:sans-serif;font-size:13;text-anchor:middle;" transform="matrix(1 0 0 1 1449.84 322)">Regular</text>
  <text style="stroke:none;fill:black;font-family:sans-serif;font-size:13;text-anchor:middle;" transform="matrix(1 0 0 1 1746.56 322)">Medium</text>
  <text style="stroke:none;fill:black;font-family:sans-serif;font-size:13;text-anchor:middle;" transform="matrix(1 0 0 1 2043.27 322)">Semibold</text>
  <text style="stroke:none;fill:black;font-family:sans-serif;font-size:13;text-anchor:middle;" transform="matrix(1 0 0 1 2339.98 322)">Bold</text>
  <text style="stroke:none;fill:black;font-family:sans-serif;font-size:13;text-anchor:middle;" transform="matrix(1 0 0 1 2636.69 322)">Heavy</text>
  <text style="stroke:none;fill:black;font-family:sans-serif;font-size:13;text-anchor:middle;" transform="matrix(1 0 0 1 2933.4 322)">Black</text>
  <line style="fill:none;stroke:black;opacity:1;stroke-width:0.5;" x1="263" x2="3036" y1="1903" y2="1903"/>
  <g transform="matrix(0.2 0 0 0.2 263 1933)">
   <path d="m46.2402 4.15039c21.7773 0 39.4531-17.627 39.4531-39.4043s-17.6758-39.4043-39.4531-39.4043c-21.7285 0-39.4043 17.627-39.4043 39.4043s17.6758 39.4043 39.4043 39.4043Zm0-7.42188c-17.6758 0-31.9336-14.3066-31.9336-31.9824s14.2578-31.9824 31.9336-31.9824 31.9824 14.3066 31.9824 31.9824-14.3066 31.9824-31.9824 31.9824Zm3.61328-17.7734v-28.4668c0-2.24609-1.46484-3.75977-3.71094-3.75977-2.14844 0-3.61328 1.51367-3.61328 3.75977v28.4668c0 2.19727 1.46484 3.71094 3.61328 3.71094 2.24609 0 3.71094-1.51367 3.71094-3.71094Zm-17.8223-10.5957h28.418c2.19727 0 3.71094-1.46484 3.71094-3.61328 0-2.19727-1.51367-3.71094-3.71094-3.71094h-28.418c-2.24609 0-3.75977 1.51367-3.75977 3.71094 0 2.14844 1.51367 3.61328 3.75977 3.61328Z"/>
  </g>
  <g transform="matrix(0.2 0 0 0.2 281.506 1933)">
   <path d="m58.5449 14.5508c27.4902 0 49.8047-22.3145 49.8047-49.8047s-22.3145-49.8047-49.8047-49.8047-49.8047 22.3145-49.8047 49.8047 22.3145 49.8047 49.8047 49.8047Zm0-8.30078c-22.9492 0-41.5039-18.5547-41.5039-41.5039s18.5547-41.5039 41.5039-41.5039 41.5039 18.5547 41.5039 41.5039-18.5547 41.5039-41.5039 41.5039Zm4.05273-23.0957v-36.9141c0-2.49023-1.70898-4.19922-4.15039-4.19922-2.39258 0-4.05273 1.70898-4.05273 4.19922v36.9141c0 2.44141 1.66016 4.15039 4.05273 4.15039 2.44141 0 4.15039-1.66016 4.15039-4.15039Zm-22.5586-14.4043h36.9629c2.44141 0 4.15039-1.61133 4.15039-4.00391 0-2.44141-1.70898-4.15039-4.15039-4.15039h-36.9629c-2.49023 0-4.15039 1.70898-4.15039 4.15039 0 2.39258 1.66016 4.00391 4.15039 4.00391Z"/>
  </g>
  <g transform="matrix(0.2 0 0 0.2 304.924 1933)">
   <path d="m74.8535 28.3203c35.1074 0 63.623-28.4668 63.623-63.5742s-28.5156-63.623-63.623-63.623-63.5742 28.5156-63.5742 63.623 28.4668 63.5742 63.5742 63.5742Zm0-9.08203c-30.127 0-54.4922-24.3652-54.4922-54.4922s24.3652-54.4922 54.4922-54.4922 54.4922 24.3652 54.4922 54.4922-24.3652 54.4922-54.4922 54.4922Zm4.44336-30.3223v-48.4863c0-2.73438-1.85547-4.63867-4.54102-4.63867-2.58789 0-4.44336 1.9043-4.44336 4.63867v48.4863c0 2.68555 1.85547 4.58984 4.44336 4.58984 2.68555 0 4.54102-1.85547 4.54102-4.58984Zm-28.7109-19.7754h48.4863c2.68555 0 4.58984-1.80664 4.58984-4.39453 0-2.73438-1.85547-4.58984-4.58984-4.58984h-48.4863c-2.73438 0-4.58984 1.85547-4.58984 4.58984 0 2.58789 1.85547 4.39453 4.58984 4.39453Z"/>
  </g>
  <text style="stroke:none;fill:black;font-family:sans-serif;font-size:13;font-weight:bold;" transform="matrix(1 0 0 1 263 1953)">Design Variations</text>
  <text style="stroke:none;fill:black;font-family:sans-serif;font-size:13;" transform="matrix(1 0 0 1 263 1971)">Symbols are supported in up to nine weights and three scales.</text>
  <text style="stroke:none;fill:black;font-family:sans-serif;font-size:13;" transform="matrix(1 0 0 1 263 1989)">For optimal layout with text and other symbols, vertically align</text>
  <text style="stroke:none;fill:black;font-family:sans-serif;font-size:13;" transform="matrix(1 0 0 1 263 2007)">symbols with the adjacent text.</text>
  <line style="fill:none;stroke:#00AEEF;stroke-width:0.5;opacity:1.0;" x1="776" x2="776" y1="1919" y2="1933"/>
  <g transform="matrix(0.2 0 0 0.2 776 1933)">
   <path d="m16.5527 0.78125c2.58789 0 3.85742-0.976562 4.78516-3.71094l20.5566-57.5195h0.244141l20.6055 57.5195c0.927734 2.73438 2.19727 3.71094 4.73633 3.71094 2.58789 0 4.24805-1.5625 4.24805-4.00391 0-0.830078-0.146484-1.61133-0.537109-2.63672l-22.9004-60.9863c-1.12305-2.97852-3.125-4.49219-6.25-4.49219-3.02734 0-5.07812 1.46484-6.15234 4.44336l-22.9004 61.084c-0.390625 1.02539-0.537109 1.80664-0.537109 2.63672 0 2.44141 1.5625 3.95508 4.10156 3.95508Zm10.2051-20.9473h30.6641c2.00195 0 3.66211-1.66016 3.66211-3.66211 0-2.05078-1.66016-3.66211-3.66211-3.66211h-30.6641c-2.00195 0-3.66211 1.61133-3.66211 3.66211 0 2.00195 1.66016 3.66211 3.66211 3.66211Z"/>
  </g>
  <line style="fill:none;stroke:#00AEEF;stroke-width:0.5;opacity:1.0;" x1="792.836" x2="792.836" y1="1919" y2="1933"/>
  <text style="stroke:none;fill:black;font-family:sans-serif;font-size:13;font-weight:bold;" transform="matrix(1 0 0 1 776 1953)">Margins</text>
  <text style="stroke:none;fill:black;font-family:sans-serif;font-size:13;" transform="matrix(1 0 0 1 776 1971)">Leading and trailing margins on the left and right side of each symbol</text>
  <text style="stroke:none;fill:black;font-family:sans-serif;font-size:13;" transform="matrix(1 0 0 1 776 1989)">can be adjusted by modifying the x-location of the margin guidelines.</text>
  <text style="stroke:none;fill:black;font-family:sans-serif;font-size:13;" transform="matrix(1 0 0 1 776 2007)">Modifications are automatically applied proportionally to all</text>
  <text style="stroke:none;fill:black;font-family:sans-serif;font-size:13;" transform="matrix(1 0 0 1 776 2025)">scales and weights.</text>
  <g transform="matrix(0.2 0 0 0.2 1289 1933)">
   <path d="m14.209 13.1348 7.86133 7.86133c4.29688 4.39453 9.32617 4.10156 13.8672-1.02539l60.6934-68.2129-4.88281-4.88281-60.2539 67.6758c-1.80664 1.95312-3.4668 2.44141-5.81055 0.0976562l-5.17578-5.12695c-2.29492-2.29492-1.80664-3.95508 0.195312-5.81055l67.4805-62.1582-4.88281-4.83398-68.0664 62.5977c-4.98047 4.58984-5.32227 9.47266-1.02539 13.8184Zm44.873-97.4609c-2.05078 2.00195-2.24609 4.88281-1.07422 6.78711 1.12305 1.80664 3.4668 3.02734 6.5918 2.24609 5.85938-1.66016 12.5977-2.39258 18.8965 0.927734l-2.68555 7.12891c-1.61133 4.00391-0.732422 6.88477 1.70898 9.42383l10.2539 10.3027c2.34375 2.39258 4.54102 2.44141 7.08008 1.95312l4.44336-0.732422 2.58789 2.53906-0.195312 2.24609c-0.0976562 2.29492 0.537109 4.29688 2.7832 6.49414l3.36914 3.32031c2.29492 2.29492 5.51758 2.49023 7.8125 0.195312l12.9883-13.0371c2.29492-2.34375 2.14844-5.37109-0.195312-7.66602l-3.41797-3.41797c-2.19727-2.19727-4.05273-3.02734-6.34766-2.88086l-2.34375 0.244141-2.44141-2.44141 1.02539-4.6875c0.634766-2.73438-0.244141-4.98047-2.88086-7.61719l-11.2793-11.1816c-12.9395-12.8418-35.5957-11.0352-46.6797-0.146484Zm7.08008 2.05078c8.78906-6.39648 25.9766-5.66406 33.6914 1.95312l12.3047 12.207c1.02539 1.02539 1.2207 1.80664 0.927734 3.32031l-1.46484 6.64062 6.73828 6.68945 4.39453-0.244141c1.12305-0.0488281 1.51367 0.0488281 2.34375 0.878906l2.53906 2.49023-10.8398 10.8398-2.49023-2.49023c-0.830078-0.878906-0.976562-1.2207-0.927734-2.39258l0.292969-4.3457-6.68945-6.73828-6.83594 1.17188c-1.41602 0.292969-2.05078 0.195312-3.17383-0.878906l-8.93555-8.88672c-1.07422-1.02539-1.17188-1.70898-0.488281-3.36914l4.58984-11.4746c-6.10352-6.34766-17.041-7.51953-25.5859-4.58984-0.683594 0.244141-0.927734-0.390625-0.390625-0.78125Z"/>
  </g>
  <text style="stroke:none;fill:black;font-family:sans-serif;font-size:13;font-weight:bold;" transform="matrix(1 0 0 1 1289 1953)">Exporting</text>
  <text style="stroke:none;fill:black;font-family:sans-serif;font-size:13;" transform="matrix(1 0 0 1 1289 1971)">Symbols should be outlined when exporting to ensure the</text>
  <text style="stroke:none;fill:black;font-family:sans-serif;font-size:13;" transform="matrix(1 0 0 1 1289 1989)">design is preserved when submitting to Xcode.</text>
  <text id="template-version" style="stroke:none;fill:black;font-family:sans-serif;font-size:13;text-anchor:end;" transform="matrix(1 0 0 1 3036 1933)">Template v.7.0</text>
  <text style="stroke:none;fill:black;font-family:sans-serif;font-size:13;text-anchor:end;" transform="matrix(1 0 0 1 3036 1951)">Requires Xcode 26 or greater</text>
  <text id="descriptive-name" style="stroke:none;fill:black;font-family:sans-serif;font-size:13;text-anchor:end;" transform="matrix(1 0 0 1 3036 1969)">Generated from wingdex.bird</text>
  <text style="stroke:none;fill:black;font-family:sans-serif;font-size:13;text-anchor:end;" transform="matrix(1 0 0 1 3036 1987)">Typeset at 100.0 points</text>
  <text style="stroke:none;fill:black;font-family:sans-serif;font-size:13;" transform="matrix(1 0 0 1 263 726)">Small</text>
  <text style="stroke:none;fill:black;font-family:sans-serif;font-size:13;" transform="matrix(1 0 0 1 263 1156)">Medium</text>
  <text style="stroke:none;fill:black;font-family:sans-serif;font-size:13;" transform="matrix(1 0 0 1 263 1586)">Large</text>
 </g>
 <g id="Guides">
  <g id="H-reference" style="fill:#27AAE1;stroke:none;" transform="matrix(1 0 0 1 339 696)">
   <path d="M0.993654 0L3.63775 0L29.3281-67.1323L30.0303-67.1323L30.0303-70.459L28.1226-70.459ZM11.6885-24.4799L46.9815-24.4799L46.2315-26.7285L12.4385-26.7285ZM55.1196 0L57.7637 0L30.6382-70.459L29.4326-70.459L29.4326-67.1323Z"/>
  </g>
  <line id="Baseline-S" style="fill:none;stroke:#27AAE1;opacity:1;stroke-width:0.5;" x1="263" x2="3036" y1="696" y2="696"/>
  <line id="Capline-S" style="fill:none;stroke:#27AAE1;opacity:1;stroke-width:0.5;" x1="263" x2="3036" y1="625.541" y2="625.541"/>
  <g id="H-reference" style="fill:#27AAE1;stroke:none;" transform="matrix(1 0 0 1 339 1126)">
   <path d="M0.993654 0L3.63775 0L29.3281-67.1323L30.0303-67.1323L30.0303-70.459L28.1226-70.459ZM11.6885-24.4799L46.9815-24.4799L46.2315-26.7285L12.4385-26.7285ZM55.1196 0L57.7637 0L30.6382-70.459L29.4326-70.459L29.4326-67.1323Z"/>
  </g>
  <line id="Baseline-M" style="fill:none;stroke:#27AAE1;opacity:1;stroke-width:0.5;" x1="263" x2="3036" y1="1126" y2="1126"/>
  <line id="Capline-M" style="fill:none;stroke:#27AAE1;opacity:1;stroke-width:0.5;" x1="263" x2="3036" y1="1055.54" y2="1055.54"/>
  <g id="H-reference" style="fill:#27AAE1;stroke:none;" transform="matrix(1 0 0 1 339 1556)">
   <path d="M0.993654 0L3.63775 0L29.3281-67.1323L30.0303-67.1323L30.0303-70.459L28.1226-70.459ZM11.6885-24.4799L46.9815-24.4799L46.2315-26.7285L12.4385-26.7285ZM55.1196 0L57.7637 0L30.6382-70.459L29.4326-70.459L29.4326-67.1323Z"/>
  </g>
  <line id="Baseline-L" style="fill:none;stroke:#27AAE1;opacity:1;stroke-width:0.5;" x1="263" x2="3036" y1="1556" y2="1556"/>
  <line id="Capline-L" style="fill:none;stroke:#27AAE1;opacity:1;stroke-width:0.5;" x1="263" x2="3036" y1="1485.54" y2="1485.54"/>
  <line id="right-margin-Black-S" style="fill:none;stroke:#00AEEF;stroke-width:0.5;opacity:1.0;" x1="2994" x2="2994" y1="600.785" y2="720.121"/>
  <line id="left-margin-Black-S" style="fill:none;stroke:#00AEEF;stroke-width:0.5;opacity:1.0;" x1="2872.8" x2="2872.8" y1="600.785" y2="720.121"/>
  <line id="right-margin-Regular-S" style="fill:none;stroke:#00AEEF;stroke-width:0.5;opacity:1.0;" x1="1505.26" x2="1505.26" y1="600.785" y2="720.121"/>
  <line id="left-margin-Regular-S" style="fill:none;stroke:#00AEEF;stroke-width:0.5;opacity:1.0;" x1="1394.42" x2="1394.42" y1="600.785" y2="720.121"/>
  <line id="right-margin-Ultralight-S" style="fill:none;stroke:#00AEEF;stroke-width:0.5;opacity:1.0;" x1="611.271" x2="611.271" y1="600.785" y2="720.121"/>
  <line id="left-margin-Ultralight-S" style="fill:none;stroke:#00AEEF;stroke-width:0.5;opacity:1.0;" x1="508.151" x2="508.151" y1="600.785" y2="720.121"/>
 </g>
 <g id="Symbols">
  <g id="Black-S" transform="matrix(1 0 0 1 2872.8 696)">
   <path class="monochrome-0 multicolor-0:custom hierarchical-0:primary SFSymbolsPreviewWireframe" d="M26.5296-51.0324C29.2223-47.2417 35.2434-48.5346 36.0723-53.086C36.9012-57.6375 31.7087-60.9005 27.8469-58.2531C25.45-56.6129 24.863-53.3807 26.5341-51.028ZM36.0454-72.2549C23.2547-72.2197 14.4422-62.3341 12.0902-52.0262C11.8707-51.8723 11.6555-51.714 11.3465-51.4985C10.5132-50.9092 9.40658-50.1309 8.30444-49.3525C6.09577-47.8002 3.90049-46.2654 3.90049-46.2654L3.90049-46.2654C2.82649-45.5142 2.5763-44.0506 3.34166-42.9964C3.52706-42.741 3.76279-42.5248 4.03487-42.3604L14.1735-36.2214C27.7931-18.2223 40.0417-7.59784 50.9285-1.87663C61.8959 3.88415 71.5371 4.60974 79.3325 2.83754C94.9279-0.702488 103.037-13.8335 103.037-13.8335L103.037-13.8335C103.614-14.7537 103.475-15.9414 102.701-16.7096L96.8768-22.4967C95.4298-21.6876 93.9423-20.9312 92.428-20.2408L97.8894-14.8142C95.5954-11.7755 88.9917-4.16775 78.2574-1.73151C71.5506-0.209966 63.2892-0.702488 53.1865-6.01032C43.0793-11.3182 31.1801-21.5205 17.7218-39.3833L17.7218-39.3833C17.5405-39.6241 17.3138-39.8286 17.0541-39.9857L9.59925-44.4976C10.2579-44.9594 10.3384-45.0121 11.0822-45.5354C12.1888-46.3138 13.2999-47.0922 14.1421-47.6903C14.5632-47.9893 14.9172-48.2399 15.177-48.429C15.3069-48.5214 15.41-48.6005 15.4996-48.6621C15.5446-48.6928 15.5804-48.7236 15.625-48.7589C15.648-48.7765 15.6746-48.7941 15.715-48.8293C15.7554-48.8645 15.7508-48.8029 16.0377-49.1547L16.0377-49.1547C16.2843-49.4575 16.4505-49.8156 16.5215-50.1969C18.1656-58.9304 25.4594-67.532 36.0594-67.5628C40.8532-67.576 47.3269-63.7633 52.3402-59.6868C55.6062-57.0307 58.263-54.3746 59.7235-52.8442L63.3031-55.9533C61.7575-57.576 58.9081-60.4344 55.3867-63.2972C50.0239-67.6552 43.1469-72.2726 36.0459-72.255Z"/>
   <path class="monochrome-1 multicolor-1:custom hierarchical-1:secondary SFSymbolsPreviewWireframe" d="M91.9645-78.4574L91.9645-78.4574C91.3782-78.4603 90.8114-78.2513 90.3719-77.8704L35.2842-30.0688L35.2842-30.0688C34.2951-29.2126 34.2004-27.7314 35.0727-26.7605C35.1134-26.7153 35.1558-26.6716 35.1999-26.6295C47.1304-15.2223 66.3682-13.2223 83.3614-18.1344C100.355-23.0464 115.511-35.1085 118.701-52.6679L118.701-52.6679C118.934-53.9419 118.071-55.1606 116.773-55.3898C116.186-55.4935 115.58-55.3776 115.076-55.065C106.738-49.9067 99.2071-48.0895 93.7771-47.5398C92.0298-47.3639 90.6237-47.335 89.3782-47.3526C90.8029-49.2479 92.5006-51.7355 93.9611-54.6906C97.1196-61.0627 99.2157-69.796 93.9334-77.4301L93.9334-77.4301C93.5474-77.9875 92.9356-78.3548 92.2543-78.4383L92.2543-78.4383C92.1581-78.4505 92.0613-78.4569 91.9644-78.4575ZM91.2898-72.4041C93.5254-67.2325 92.0742-61.6135 89.6593-56.741C86.8681-51.1078 82.9573-46.991 82.9573-46.991L82.9573-46.991C82.0541-46.0478 82.1009-44.5644 83.0619-43.6778C83.3783-43.3859 83.7699-43.1842 84.1944-43.0944C84.1944-43.0944 88.2085-42.2639 94.2611-42.8796C99.1669-43.3765 105.55-44.8415 112.584-48.3331C108.024-35.6682 95.8871-26.652 82.0077-22.6414C67.2502-18.3758 50.8977-19.9631 40.4635-28.314Z"/>
  </g>
  <g id="Regular-S" transform="matrix(1 0 0 1 1394.42 696)">
   <path class="monochrome-0 multicolor-0:custom hierarchical-0:primary SFSymbolsPreviewWireframe" d="M23.5021-50.2337C25.9772-46.7756 31.5122-47.9551 32.2741-52.1072C33.036-56.2592 28.2629-59.2359 24.7129-56.8209C22.5096-55.3245 21.9701-52.3759 23.5062-50.2297ZM32.2494-69.5941C20.4916-69.562 12.3909-60.5437 10.2287-51.1403C10.027-50.9999 9.82928-50.8555 9.54511-50.6589C8.7791-50.1214 7.76188-49.4113 6.74877-48.7012C4.71844-47.2851 2.70046-45.885 2.70046-45.885L2.70046-45.885C1.7132-45.1997 1.48323-43.8645 2.18679-42.9028C2.35722-42.6698 2.5739-42.4726 2.82401-42.3227L12.1438-36.7223C24.6635-20.3025 35.923-10.6103 45.9305-5.39107C56.0121-0.13576 64.8748 0.526169 72.0406-1.09054C86.3765-4.31995 93.8307-16.2988 93.8307-16.2988L93.8307-16.2988C94.3607-17.1382 94.2331-18.2218 93.5218-18.9225L88.168-24.2019C86.8378-23.4637 85.4705-22.7737 84.0785-22.1439L89.0987-17.1934C86.9902-14.4214 80.9197-7.48116 71.0522-5.25868C64.8871-3.87064 57.2929-4.31995 48.0061-9.16205C38.7152-14.0042 27.7769-23.3113 15.4055-39.6067L15.4055-39.6067C15.2389-39.8264 15.0306-40.013 14.7919-40.1563L7.93897-44.2723C8.54436-44.6936 8.61849-44.7417 9.30213-45.2191C10.3194-45.9292 11.3407-46.6392 12.1149-47.1848C12.5021-47.4576 12.8274-47.6863 13.0663-47.8588C13.1857-47.943 13.2804-48.0152 13.3628-48.0714C13.404-48.0995 13.4369-48.1276 13.4781-48.1597C13.4987-48.1757 13.5234-48.1917 13.5605-48.2238C13.5976-48.2559 13.5934-48.1998 13.857-48.5207L13.857-48.5207C14.0837-48.7969 14.2365-49.1236 14.3018-49.4715C15.8132-57.4387 22.5178-65.2856 32.2618-65.3136C36.6684-65.3257 42.6194-61.8475 47.2278-58.1287C50.23-55.7056 52.6722-53.2826 54.0148-51.8865L57.3053-54.7228C55.8845-56.2031 53.2652-58.8107 50.0282-61.4223C45.0986-65.3979 38.777-69.6101 32.2495-69.5941Z"/>
   <path class="monochrome-1 multicolor-1:custom hierarchical-1:secondary SFSymbolsPreviewWireframe" d="M83.6524-75.2524L83.6524-75.2524C83.1135-75.255 82.5924-75.0643 82.1885-74.7168L31.5496-31.1096L31.5496-31.1096C30.6403-30.3286 30.5531-28.9774 31.3549-28.0916C31.3922-28.0503 31.4313-28.0104 31.4718-27.972C42.4389-17.5657 60.1231-15.7412 75.7439-20.2223C91.3647-24.7033 105.297-35.707 108.229-51.7257L108.229-51.7257C108.444-52.8879 107.651-53.9997 106.458-54.2088C105.918-54.3034 105.361-54.1977 104.897-53.9125C97.2328-49.2068 90.3098-47.549 85.3184-47.0475C83.7123-46.8871 82.4197-46.8607 81.2748-46.8768C82.5844-48.6058 84.145-50.8751 85.4875-53.571C88.3909-59.3839 90.3178-67.3509 85.4622-74.3152L85.4622-74.3152C85.1074-74.8237 84.545-75.1588 83.9186-75.2349L83.9186-75.2349C83.8303-75.246 83.7414-75.2518 83.6523-75.2524ZM83.0322-69.7302C85.0873-65.0124 83.7531-59.8864 81.5333-55.4415C78.9676-50.3025 75.3726-46.5469 75.3726-46.5469L75.3726-46.5469C74.5423-45.6864 74.5854-44.3332 75.4687-43.5245C75.7596-43.2581 76.1196-43.0741 76.5099-42.9922C76.5099-42.9922 80.1998-42.2346 85.7636-42.7962C90.2732-43.2496 96.1412-44.586 102.607-47.7713C98.4145-36.2176 87.2583-27.9925 74.4997-24.3339C60.934-20.4425 45.9022-21.8906 36.3106-29.5088Z"/>
  </g>
  <g id="Ultralight-S" transform="matrix(1 0 0 1 508.151 696)">
   <path class="monochrome-0 multicolor-0:custom hierarchical-0:primary SFSymbolsPreviewWireframe" d="M22.328-46.5951C24.6214-43.4345 29.7501-44.5125 30.4562-48.3074C31.1621-52.1023 26.7393-54.8229 23.4499-52.6157C21.4083-51.248 20.9084-48.5531 22.3318-46.5914ZM30.4332-64.2901C19.5384-64.2608 12.0323-56.0183 10.0288-47.4238C9.84196-47.2954 9.65873-47.1634 9.39546-46.9838C8.68561-46.4924 7.74306-45.8435 6.80437-45.1945C4.92303-43.9002 3.05316-42.6205 3.05316-42.6205L3.05316-42.6205C2.13839-41.9941 1.92532-40.7738 2.57726-39.8948C2.73519-39.6819 2.93597-39.5016 3.16773-39.3646L11.8033-34.246C23.404-19.2387 33.8371-10.3802 43.1101-5.60998C52.4518-0.806741 60.6638-0.201751 67.3038-1.67939C80.5873-4.63099 87.4945-15.5794 87.4945-15.5794L87.4945-15.5794C87.9856-16.3466 87.8674-17.3369 87.2082-17.9774L82.2474-22.8026C81.0148-22.128 79.7479-21.4973 78.4581-20.9216L83.1099-16.3971C81.1559-13.8635 75.5311-7.52027 66.3879-5.48898C60.6753-4.22034 53.6386-4.63099 45.0334-9.05656C36.4244-13.4821 26.289-21.9886 14.8257-36.8823L14.8257-36.8823C14.6713-37.0831 14.4782-37.2536 14.257-37.3846L7.90719-41.1466C8.46815-41.5316 8.53681-41.5756 9.17029-42.0119C10.1128-42.6609 11.0592-43.3098 11.7766-43.8085C12.1353-44.0578 12.4368-44.2668 12.6581-44.4245C12.7688-44.5015 12.8566-44.5675 12.9329-44.6188C12.9705-44.6445 13.0013-44.6701 13.0397-44.6995C13.059-44.7141 13.0812-44.7288 13.1159-44.7582C13.1497-44.7875 13.1468-44.7362 13.3906-45.0295L13.3906-45.0295C13.6007-45.282 13.7423-45.5805 13.8027-45.8985C15.2032-53.1803 21.4157-60.3522 30.4445-60.3778C34.5276-60.3888 40.0419-57.2099 44.3119-53.811C47.0938-51.5964 49.3567-49.3817 50.6008-48.1058L53.6498-50.6981C52.3332-52.051 49.9063-54.4343 46.9069-56.8212C42.339-60.4548 36.4814-64.3048 30.433-64.2901Z"/>
   <path class="monochrome-1 multicolor-1:custom hierarchical-1:secondary SFSymbolsPreviewWireframe" d="M78.0632-69.4616L78.0632-69.4616C77.5638-69.464 77.081-69.2898 76.7067-68.9721L29.7848-29.1161L29.7848-29.1161C28.9422-28.4023 28.8612-27.1674 29.6041-26.3578C29.6387-26.32 29.6749-26.2835 29.7125-26.2484C39.8745-16.7373 56.2608-15.0698 70.7349-19.1654C85.2092-23.2609 98.1187-33.3181 100.836-47.9588L100.836-47.9588C101.035-49.021 100.3-50.0371 99.1942-50.2283C98.6939-50.3148 98.1781-50.2181 97.7482-49.9574C90.6466-45.6565 84.2317-44.1414 79.6066-43.683C78.1184-43.5364 76.9207-43.5123 75.8598-43.527C77.0734-45.1073 78.5193-47.1814 79.7634-49.6453C82.4537-54.9582 84.2391-62.2398 79.7403-68.6051L79.7403-68.6051C79.4115-69.0698 78.8904-69.3761 78.31-69.4457L78.31-69.4457C78.2282-69.4558 78.1458-69.4611 78.0633-69.4616ZM77.4886-64.4144C79.3928-60.1025 78.1565-55.4175 76.0997-51.3549C73.7223-46.658 70.3911-43.2255 70.3911-43.2255L70.3911-43.2255C69.6218-42.439 69.6617-41.2022 70.4802-40.463C70.7498-40.2196 71.0833-40.0514 71.445-39.9766C71.445-39.9766 74.8641-39.2841 80.0194-39.7974C84.198-40.2118 89.6354-41.4333 95.6265-44.3445C91.7418-33.7847 81.4044-26.2672 69.5823-22.9233C57.0124-19.3667 43.0839-20.6901 34.1964-27.653Z"/>
  </g>
 </g>
</svg>
