<svg xmlns="http://www.w3.org/2000/svg" xml:space="preserve" width="840.233" height="587.736" viewBox="0 0 840.233 587.736">
  <g style="opacity:1">
    <path d="M91.953 34.006c-26.555.071-44.768 21.81-48.832 43.853-.223.277-19.85 14.258-19.85 14.258l23.481 14.461c121.391 164.21 190.182 52.15 190.182 52.15l-14.088-14.255c-7.83 4.045-16.094 7.33-24.541 9.818-38.565 11.357-82.623 6.805-110.116-19.969-3.332-3.245-3.2-8.647.286-11.726l60.314-53.31c-8.482-9.091-34.879-35.34-56.836-35.28" style="baseline-shift:baseline;display:inline;overflow:visible;vector-effect:none;fill:none;stroke-linecap:round;stroke-linejoin:round;stop-color:#000;stop-opacity:1" transform="matrix(3.24954 0 0 3.14642 -58.29 -45.842)"/>
    <path d="M91.119 28.501c-12.757.261-25.277 5.52-34.517 14.26-9.04 8.38-15.34 19.55-18.19 31.495-.619.73-1.552 1.1-2.265 1.734-5.431 3.933-10.977 7.717-16.33 11.756-2.739 2.597-2.444 7.694.784 9.774 2.194 1.568 4.582 2.806 6.829 4.273l15.817 9.705c15.667 20.855 32.772 40.85 52.875 57.608 13.058 10.874 27.507 20.367 43.515 26.327 13.697 5.072 28.655 7.308 43.173 5.067 14.082-2.134 27.41-8.315 38.51-17.15 7.826-6.164 14.738-13.513 20.263-21.794 1.324-2.095 1.4-4.94-.034-7-1.26-1.805-3.025-3.174-4.504-4.79-3.13-3.13-4.974-4.735-8.162-7.798-1.288-.546-1.799.02-3.67 1.054-1.873 1.033-4.633 2.455-7.688 4.157-.755.928.106 2.084.902 2.644 3.45 3.499 5.673 5.404 9.138 8.89-9.64 12.495-22.977 22.55-38.277 27.06-9.38 2.764-19.444 3.35-29.083 1.78-13.33-2.134-25.857-7.803-37.237-14.924-14.07-8.822-26.552-19.94-38.069-31.795-11.594-11.962-22.104-24.917-32.08-38.233-1.557-1.779-3.81-2.696-5.735-4.003q-5.432-3.34-10.868-6.673c4.207-3.045 8.529-5.946 12.603-9.163 1.976-2.115 1.854-5.186 2.75-7.776 3.192-11.232 10.375-21.498 20.396-27.692 6.722-4.092 14.675-6.282 22.547-5.683 5.727.56 11.246 3 16.308 5.73 11.332 6.154 20.22 13.414 29.26 22.504 1.08 1.05 2.059 2.24 3.213 3.195 1.172.486 2.038-.692 2.828-1.348 2.234-2.046 4.237-3.759 6.815-6.026.443-1.195-.846-2.077-1.528-2.848-9.918-10.252-19.821-18.502-32.083-25.89-7.646-4.487-16.156-7.981-25.115-8.397-1.03-.046-2.061-.05-3.091-.03" style="baseline-shift:baseline;display:inline;overflow:visible;vector-effect:none;stroke-width:.988735;stroke-linecap:round;stroke-linejoin:round;stop-color:#000;stop-opacity:1" transform="matrix(3.24954 0 0 3.14642 -58.29 -45.842)"/>
  </g>
  <g style="opacity:1">
    <path d="M216.738 19.902 93.772 128.59c49.538 48.242 164.051 18.6 177.404-56.328-38.718 24.41-70.632 17.505-70.632 17.505s36.914-39.35 16.194-69.866" style="baseline-shift:baseline;display:inline;overflow:visible;vector-effect:none;fill:none;stroke-linecap:round;stroke-linejoin:round;stop-color:#000;stop-opacity:1" transform="matrix(3.24954 0 0 3.14642 -58.29 -45.842)"/>
    <path d="M215.52 14.59c-2.744.21-4.627 2.428-6.578 4.095-39.785 35.029-79.576 70.051-119.334 105.109-2.478 2.436-2.432 6.936.219 9.234 3.764 3.734 7.993 6.992 12.45 9.865 13.275 8.51 28.793 13.139 44.444 14.582 19.08 1.8 38.474-.87 56.582-7.009 18.021-6.156 34.922-16.037 48.316-29.62 10.616-10.805 18.825-24.106 22.906-38.718.877-3.157 1.683-6.362 1.999-9.626-.064-3.601-3.615-6.743-7.23-6.208-2.523.333-4.46 2.147-6.645 3.28-13.481 7.824-28.536 13.136-44.116 14.493-1.886.143-3.827.273-5.739.285 7.094-9.966 12.856-21.136 15.119-33.23 1.839-9.665.974-20.045-3.584-28.87-1.146-2.221-2.36-4.488-4.163-6.25-1.294-1.039-2.994-1.531-4.646-1.411m-1.399 16.918c2.438 6.88 2.052 14.47.053 21.406-2.621 9.288-7.467 17.736-13.12 25.52-2.068 2.823-4.352 5.481-6.562 8.189-2.016 3.109-.644 7.878 2.863 9.257 2.356.982 4.965.924 7.46 1.233 15.473 1.18 31.047-1.832 45.478-7.318 3.098-1.191 6.151-2.5 9.148-3.924-5.617 13.977-15.645 26.02-27.647 35.082-16.024 12.178-35.352 19.692-55.214 22.68-16.315 2.4-33.249 1.676-49.027-3.308-8.403-2.682-16.402-6.634-23.38-12.05L214.11 31.476z" style="baseline-shift:baseline;display:inline;overflow:visible;vector-effect:none;stroke-width:.988735;stroke-linecap:round;stroke-linejoin:round;stop-color:#000;stop-opacity:1" transform="matrix(3.24954 0 0 3.14642 -58.29 -45.842)"/>
  </g>
  <path d="M86.444 79.547c6.011 8.625 19.447 5.676 21.295-4.672S98.002 57.109 89.377 63.12c-5.346 3.726-6.66 11.08-2.933 16.426" style="fill:#000;stroke-width:.983272" transform="matrix(3.24954 0 0 3.14642 -109.433 -54.095)"/>
</svg>
