<?xml version="1.0" encoding="UTF-8" standalone="no"?>
<!-- Created with Inkscape (http://www.inkscape.org/) -->

<svg
   width="840.23279"
   height="587.73553"
   viewBox="0 0 840.23279 587.73553"
   version="1.1"
   id="svg1"
   xml:space="preserve"
   xmlns="http://www.w3.org/2000/svg"
   xmlns:svg="http://www.w3.org/2000/svg"><defs
     id="defs1" /><g
     id="layer1"
     transform="translate(-1499.8837,-107.08923)"><g
       id="g4"
       transform="matrix(3.249536,0,0,3.1464163,1390.4504,52.993793)"><g
         id="path31-5"
         style="opacity:1"
         transform="translate(15.738508,2.6230847)"><path
           id="path93"
           style="baseline-shift:baseline;display:inline;overflow:visible;vector-effect:none;fill:none;stroke-linecap:round;stroke-linejoin:round;enable-background:accumulate;stop-color:#000000;stop-opacity:1"
           d="m 91.953125,34.005859 c -26.55466,0.07151 -44.768341,21.809966 -48.832031,43.853516 -0.22299,0.27688 -19.84961,14.257813 -19.84961,14.257813 l 23.480469,14.460932 c 121.391197,164.21047 190.181637,52.1504 190.181637,52.1504 L 222.8457,144.47266 c -7.83047,4.04548 -16.09334,7.33052 -24.54101,9.81836 -38.56461,11.35724 -82.62311,6.805 -110.115237,-19.96875 -3.332066,-3.24486 -3.200208,-8.64687 0.285156,-11.72657 L 148.78906,69.285156 C 140.30662,60.194512 113.91021,33.946739 91.953125,34.005859 Z" /><path
           id="path94"
           style="baseline-shift:baseline;display:inline;overflow:visible;vector-effect:none;stroke-linecap:round;stroke-linejoin:round;enable-background:accumulate;stop-color:#000000;stop-opacity:1"
           d="m 91.9375,28.671875 c -28.554146,0.07689 -48.217098,22.564609 -53.472656,46.003906 -0.485613,0.353456 -0.973186,0.707712 -1.660156,1.203125 -1.860374,1.341621 -4.330434,3.11221 -6.794922,4.875 -4.928977,3.525581 -9.833985,7.019532 -9.833985,7.019532 a 5.3338835,5.3338835 0 0 0 0.298828,8.884765 l 22.648438,13.949217 c 30.395394,40.93108 57.735233,65.09058 82.041013,78.09766 24.48385,13.10237 45.99583,14.74945 63.40235,10.72265 34.81303,-8.05358 52.91211,-37.91015 52.91211,-37.91015 a 5.3338835,5.3338835 0 0 0 -0.75,-6.53906 l -13.00391,-13.15821 c -3.2297,1.84499 -6.5458,3.55569 -9.92969,5.12891 l 12.19141,12.33594 c -5.11629,6.90893 -19.85915,24.20596 -43.82422,29.75 -14.96502,3.46198 -33.40919,2.33613 -55.96484,-9.73438 C 107.6416,167.23027 81.073312,144.03403 51.041016,103.4082 a 5.3338835,5.3338835 0 0 0 -1.492188,-1.37109 L 32.908203,91.789062 c 1.466856,-1.047008 1.648363,-1.173247 3.306641,-2.359374 2.470176,-1.766859 4.947642,-3.540906 6.830078,-4.898438 0.941218,-0.678766 1.731756,-1.251799 2.310547,-1.675781 0.289395,-0.211992 0.523811,-0.385768 0.716797,-0.53125 0.09649,-0.07274 0.177952,-0.135031 0.28125,-0.216797 0.05165,-0.04088 0.106496,-0.08342 0.201172,-0.164063 0.09468,-0.08065 0.07841,0.05924 0.720703,-0.738281 a 5.3338835,5.3338835 0 0 0 1.089843,-2.376953 c 3.661942,-19.864262 19.951099,-39.424592 43.601563,-39.488281 10.700223,-0.02881 25.148993,8.641991 36.343753,17.914062 7.28739,6.035796 13.22371,12.080352 16.48047,15.564453 l 7.99414,-7.066406 C 149.33596,62.049518 142.9686,55.545243 135.11328,49.039062 123.14494,39.126269 107.79193,28.629186 91.9375,28.671875 Z" /></g><g
         id="path19-2"
         style="opacity:1"
         transform="translate(15.738508,2.6230847)"><path
           style="baseline-shift:baseline;display:inline;overflow:visible;vector-effect:none;fill:none;stroke-linecap:round;stroke-linejoin:round;enable-background:accumulate;stop-color:#000000;stop-opacity:1"
           d="M 216.73837,19.901949 93.772421,128.59066 C 143.3096,176.83344 257.8231,147.19143 271.17553,72.263459 c -38.71726,24.40873 -70.63154,17.50444 -70.63154,17.50444 0,0 36.914,-39.35037 16.19438,-69.86595 z"
           id="path112" /><path
           style="baseline-shift:baseline;display:inline;overflow:visible;vector-effect:none;stroke-linecap:round;stroke-linejoin:round;enable-background:accumulate;stop-color:#000000;stop-opacity:1"
           d="m 217.4043,14.611328 a 5.3338835,5.3338835 0 0 0 -4.19727,1.294922 L 90.240234,124.59375 a 5.3338835,5.3338835 0 0 0 -0.189453,7.81836 c 26.631299,25.93542 69.571589,30.4902 107.499999,19.32031 37.92842,-11.16989 71.7581,-38.59626 78.875,-78.533201 a 5.3338835,5.3338835 0 0 0 -8.09375,-5.447266 c -18.60749,11.730818 -35.4172,15.858293 -47.53906,17.111328 -3.89575,0.402704 -7.0412,0.467075 -9.81641,0.433594 3.18131,-4.310157 6.96529,-9.970762 10.23047,-16.685547 7.04797,-14.494006 11.72848,-34.348105 -0.0566,-51.705078 a 5.3338835,5.3338835 0 0 0 -3.74609,-2.294922 z m -2.14844,13.71875 c 4.99156,11.763595 1.74694,24.535824 -3.64063,35.615234 -6.22912,12.810074 -14.96093,22.173829 -14.96093,22.173829 a 5.3338835,5.3338835 0 0 0 2.76172,8.861328 c 0,0 8.95806,1.891142 22.47265,0.49414 10.94875,-1.13177 25.20083,-4.464125 40.90039,-12.398437 -10.18231,28.800918 -37.26762,49.298968 -68.25195,58.423828 -32.93949,9.70065 -69.43748,6.08747 -92.72656,-12.89648 z"
           id="path113" /></g><path
         d="m 86.443909,79.547404 c 6.01111,8.62464 19.447201,5.67515 21.295021,-4.67264 1.84781,-10.34778 -9.737021,-17.76529 -18.361661,-11.75418 -5.34617,3.72612 -6.65948,11.08065 -2.93336,16.42682 z"
         style="fill:#000000;stroke-width:0.983272"
         id="path35-67" /></g></g></svg>
