<?xml version="1.0" encoding="UTF-8" standalone="no"?>
<!-- Created with Inkscape (http://www.inkscape.org/) -->

<svg
   width="840.23279"
   height="587.73553"
   viewBox="0 0 840.23279 587.73553"
   version="1.1"
   id="svg1"
   xml:space="preserve"
   xmlns="http://www.w3.org/2000/svg"
   xmlns:svg="http://www.w3.org/2000/svg"><defs
     id="defs1" /><g
     id="layer1"
     transform="translate(-1499.8837,-781.7115)"><g
       id="g3"
       transform="matrix(3.2495257,0,0,3.1463926,1276.5161,-76.065734)"><g
         id="path31-5-0"
         transform="translate(50.800435,258.05421)"
         style="fill:#000000"><path
           id="path93-5"
           style="baseline-shift:baseline;display:inline;overflow:visible;vector-effect:none;fill:#000000;fill-opacity:1;stroke-linecap:round;stroke-linejoin:round;enable-background:accumulate;stop-color:#000000;stop-opacity:1"
           d="M 91.953425,34.005616 C 65.398765,34.077126 47.184869,55.815611 43.121179,77.859161 42.898189,78.136041 23.271527,92.11718 23.271527,92.11718 l 23.48059,14.46101 C 168.14331,270.78866 236.93372,158.72868 236.93372,158.72868 l -14.088,-14.25616 c -7.83047,4.04548 -16.09317,7.33058 -24.54084,9.81842 -38.56461,11.35724 -82.6231,6.80482 -110.115225,-19.96893 -3.332066,-3.24486 -3.200467,-8.6469 0.284897,-11.7266 L 148.78924,69.285354 C 140.3068,60.19471 113.91051,33.946496 91.953425,34.005616 Z M 80.406067,58.342763 c 6.810137,0.03529 12.980098,6.148323 11.59424,13.909158 -1.84782,10.34779 -15.284065,13.297029 -21.295175,4.672389 -3.72612,-5.34617 -2.412449,-12.700802 2.933721,-16.426922 2.15616,-1.502778 4.497168,-2.166389 6.767214,-2.154625 z" /><path
           id="path94-2"
           style="baseline-shift:baseline;display:inline;overflow:visible;vector-effect:none;fill:#000000;stroke-linecap:round;stroke-linejoin:round;enable-background:accumulate;stop-color:#000000;stop-opacity:1"
           d="m 91.9375,28.671875 c -28.554146,0.07689 -48.217098,22.564609 -53.472656,46.003906 -0.485613,0.353456 -0.973186,0.707712 -1.660156,1.203125 -1.860374,1.341621 -4.330434,3.11221 -6.794922,4.875 -4.928977,3.525581 -9.833985,7.019532 -9.833985,7.019532 a 5.3338835,5.3338835 0 0 0 0.298828,8.884765 l 22.648438,13.949217 c 30.395394,40.93108 57.735233,65.09058 82.041013,78.09766 24.48385,13.10237 45.99583,14.74945 63.40235,10.72265 34.81303,-8.05358 52.91211,-37.91015 52.91211,-37.91015 a 5.3338835,5.3338835 0 0 0 -0.75,-6.53906 l -13.00391,-13.15821 c -3.2297,1.84499 -6.5458,3.55569 -9.92969,5.12891 l 12.19141,12.33594 c -5.11629,6.90893 -19.85915,24.20596 -43.82422,29.75 -14.96502,3.46198 -33.40919,2.33613 -55.96484,-9.73438 C 107.6416,167.23027 81.073312,144.03403 51.041016,103.4082 a 5.3338835,5.3338835 0 0 0 -1.492188,-1.37109 L 32.908203,91.789062 c 1.466856,-1.047008 1.648363,-1.173247 3.306641,-2.359374 2.470176,-1.766859 4.947642,-3.540906 6.830078,-4.898438 0.941218,-0.678766 1.731756,-1.251799 2.310547,-1.675781 0.289395,-0.211992 0.523811,-0.385768 0.716797,-0.53125 0.09649,-0.07274 0.177952,-0.135031 0.28125,-0.216797 0.05165,-0.04088 0.106496,-0.08342 0.201172,-0.164063 0.09468,-0.08065 0.07841,0.05924 0.720703,-0.738281 a 5.3338835,5.3338835 0 0 0 1.089843,-2.376953 c 3.661942,-19.864262 19.951099,-39.424592 43.601563,-39.488281 10.700223,-0.02881 25.148993,8.641991 36.343753,17.914062 7.28739,6.035796 13.22371,12.080352 16.48047,15.564453 l 7.99414,-7.066406 C 149.33596,62.049518 142.9686,55.545243 135.11328,49.039062 123.14494,39.126269 107.79193,28.629186 91.9375,28.671875 Z" /></g><g
         id="path19-2-0"
         style="opacity:1"
         transform="translate(15.738508,2.6230847)"><path
           style="baseline-shift:baseline;display:inline;overflow:visible;vector-effect:none;stroke-linecap:round;stroke-linejoin:round;enable-background:accumulate;stop-color:#000000;stop-opacity:1"
           d="M 251.8003,275.33308 128.83435,384.02179 c 49.53718,48.24278 164.05068,18.60077 177.40311,-56.3272 -38.71726,24.40873 -70.63154,17.50444 -70.63154,17.50444 0,0 36.914,-39.35037 16.19438,-69.86595 z"
           id="path114" /><path
           style="baseline-shift:baseline;display:inline;overflow:visible;vector-effect:none;stroke-linecap:round;stroke-linejoin:round;enable-background:accumulate;stop-color:#000000;stop-opacity:1"
           d="m 252.4668,270.04102 a 5.3338835,5.3338835 0 0 0 -4.19922,1.29687 l -122.96485,108.6875 a 5.3338835,5.3338835 0 0 0 -0.18945,7.81641 c 26.6313,25.93542 69.56963,30.49215 107.49805,19.32226 37.92841,-11.16989 71.76005,-38.59626 78.87695,-78.5332 a 5.3338835,5.3338835 0 0 0 -8.0957,-5.44727 c -18.60749,11.73082 -35.4172,15.8583 -47.53906,17.11133 -3.89505,0.40263 -7.03954,0.46702 -9.81446,0.4336 3.18131,-4.31016 6.96529,-9.97272 10.23047,-16.6875 7.04797,-14.49401 11.72848,-34.34616 -0.0566,-51.70313 a 5.3338835,5.3338835 0 0 0 -3.74609,-2.29687 z m -2.14844,13.7207 c 4.99156,11.76359 1.74498,24.53582 -3.64258,35.61523 -6.22912,12.81008 -14.95898,22.17383 -14.95898,22.17383 a 5.3338835,5.3338835 0 0 0 2.76172,8.86133 c 0,0 8.95806,1.88919 22.47265,0.49219 10.94875,-1.13177 25.20083,-4.46413 40.90039,-12.39844 -10.18231,28.80092 -37.26957,49.30092 -68.2539,58.42578 -32.93902,9.70051 -69.43549,6.08675 -92.72461,-12.89648 z"
           id="path115" /></g></g></g></svg>
