<svg xmlns="http://www.w3.org/2000/svg" xml:space="preserve" width="840.233" height="587.736" viewBox="0 0 840.233 587.736">
  <g style="fill:#000">
    <path d="M91.953 34.006c-26.554.071-44.768 21.81-48.832 43.853-.223.277-19.85 14.258-19.85 14.258l23.481 14.461c121.391 164.21 190.182 52.15 190.182 52.15l-14.088-14.255c-7.83 4.045-16.093 7.33-24.541 9.818-38.565 11.357-82.623 6.805-110.115-19.969-3.332-3.245-3.2-8.647.285-11.727l60.314-53.31c-8.482-9.09-34.878-35.339-56.836-35.28M80.406 58.343c6.81.035 12.98 6.148 11.594 13.909-1.848 10.348-15.284 13.297-21.295 4.672-3.726-5.346-2.412-12.7 2.934-16.427 2.156-1.502 4.497-2.166 6.767-2.154" style="baseline-shift:baseline;display:inline;overflow:visible;vector-effect:none;fill:#000;fill-opacity:1;stroke-linecap:round;stroke-linejoin:round;stop-color:#000;stop-opacity:1" transform="matrix(3.24953 0 0 3.1464 -58.29 -45.837)"/>
    <path d="M91.938 28.672c-28.555.077-48.218 22.564-53.473 46.004-.486.353-.973.707-1.66 1.203a2332 2332 0 0 1-6.795 4.875 7069 7069 0 0 1-9.834 7.02 5.334 5.334 0 0 0 .299 8.884l22.648 13.95c30.395 40.93 57.735 65.09 82.041 78.097 24.484 13.102 45.996 14.75 63.402 10.723 34.813-8.054 52.913-37.91 52.913-37.91a5.334 5.334 0 0 0-.75-6.54l-13.004-13.158a133 133 0 0 1-9.93 5.13l12.191 12.335c-5.116 6.91-19.859 24.206-43.824 29.75-14.965 3.462-33.41 2.336-55.965-9.734s-49.124-35.267-79.156-75.893a5.3 5.3 0 0 0-1.492-1.37l-16.64-10.249c1.466-1.047 1.648-1.173 3.306-2.36 2.47-1.766 4.947-3.54 6.83-4.898.941-.679 1.732-1.252 2.31-1.676.29-.212.524-.385.717-.53.097-.074.178-.136.282-.218.051-.04.106-.083.2-.164.095-.08.08.06.721-.738a5.33 5.33 0 0 0 1.09-2.377c3.662-19.864 19.951-39.424 43.602-39.488 10.7-.029 25.149 8.642 36.344 17.914 7.287 6.036 13.223 12.08 16.48 15.564l7.994-7.066c-3.449-3.702-9.816-10.207-17.672-16.713-11.968-9.913-27.321-20.41-43.175-20.367" style="baseline-shift:baseline;display:inline;overflow:visible;vector-effect:none;fill:#000;stroke-linecap:round;stroke-linejoin:round;stop-color:#000;stop-opacity:1" transform="matrix(3.24953 0 0 3.1464 -58.29 -45.837)"/>
  </g>
  <g style="opacity:1">
    <path d="M251.8 275.333 128.834 384.022c49.538 48.243 164.051 18.6 177.403-56.327-38.717 24.408-70.631 17.504-70.631 17.504s36.914-39.35 16.194-69.866" style="baseline-shift:baseline;display:inline;overflow:visible;vector-effect:none;stroke-linecap:round;stroke-linejoin:round;stop-color:#000;stop-opacity:1" transform="matrix(3.24953 0 0 3.1464 -172.225 -849.524)"/>
    <path d="M252.467 270.041a5.33 5.33 0 0 0-4.2 1.297L125.304 380.025a5.334 5.334 0 0 0-.19 7.817c26.632 25.935 69.57 30.492 107.498 19.322s71.76-38.596 78.877-78.533a5.334 5.334 0 0 0-8.095-5.447c-18.608 11.73-35.418 15.858-47.54 17.11-3.895.404-7.039.468-9.814.435 3.181-4.31 6.965-9.973 10.23-16.688 7.049-14.494 11.729-34.346-.056-51.703a5.33 5.33 0 0 0-3.746-2.297m-2.149 13.72c4.992 11.764 1.745 24.537-3.642 35.616-6.23 12.81-14.96 22.174-14.96 22.174a5.334 5.334 0 0 0 2.763 8.861s8.958 1.89 22.472.492c10.949-1.131 25.201-4.464 40.9-12.398-10.182 28.8-37.269 49.3-68.253 58.426-32.94 9.7-69.436 6.086-92.725-12.897z" style="baseline-shift:baseline;display:inline;overflow:visible;vector-effect:none;stroke-linecap:round;stroke-linejoin:round;stop-color:#000;stop-opacity:1" transform="matrix(3.24953 0 0 3.1464 -172.225 -849.524)"/>
  </g>
</svg>
