<svg xmlns="http://www.w3.org/2000/svg" xmlns:xlink="http://www.w3.org/1999/xlink" xml:space="preserve" width="840.234" height="603.394" viewBox="0 0 840.234 603.394">
  <defs>
    <linearGradient id="b">
      <stop offset="0" style="stop-color:#347f3f;stop-opacity:1"/>
      <stop offset="1" style="stop-color:#539739;stop-opacity:1"/>
    </linearGradient>
    <linearGradient id="c">
      <stop offset="0" style="stop-color:#b0da39;stop-opacity:1"/>
      <stop offset="1" style="stop-color:#e7f657;stop-opacity:1"/>
    </linearGradient>
    <linearGradient xlink:href="#a" id="d" x1="900.729" x2="894.708" y1="422.06" y2="316.326" gradientTransform="matrix(3.24955 0 0 3.23025 -2340.796 544.043)" gradientUnits="userSpaceOnUse"/>
    <linearGradient id="a">
      <stop offset="0" style="stop-color:#77b281;stop-opacity:1"/>
      <stop offset="1" style="stop-color:#f1fcbb;stop-opacity:1"/>
    </linearGradient>
    <linearGradient xlink:href="#b" id="e" x1="992.43" x2="986.256" y1="388.363" y2="365.316" gradientTransform="matrix(3.24955 0 0 3.23025 -2340.807 544.043)" gradientUnits="userSpaceOnUse"/>
    <linearGradient xlink:href="#c" id="f" x1="961.386" x2="943.411" y1="357.689" y2="333.536" gradientTransform="matrix(3.24955 0 0 3.23025 -2340.796 544.043)" gradientUnits="userSpaceOnUse"/>
  </defs>
  <path d="M459.913 1471.707c-92.786.248-156.682 72.885-173.762 148.598a1401 1401 0 0 1-5.395 3.886 7536 7536 0 0 1-22.087 15.754c-16.017 11.388-31.95 22.668-31.95 22.668a17.333 17.23 0 0 0 .965 28.7l73.604 45.06c98.771 132.218 187.607 210.259 266.59 252.275 79.561 42.324 149.471 47.645 206.035 34.637 113.126-26.015 171.94-122.453 171.94-122.453a17.333 17.23 0 0 0-2.443-21.13l-277.443-279.05c-1.17-1.347-27.707-31.836-65.753-63.16-38.891-32.021-88.782-65.923-140.301-65.785" style="baseline-shift:baseline;display:inline;overflow:visible;vector-effect:none;fill:url(#d);fill-opacity:1;fill-rule:nonzero;stroke-width:3.23988;stroke-linecap:round;stroke-linejoin:round;stop-color:#000" transform="translate(-219.445 -1426.148)"/>
  <path d="M1042.02 1595.359a17.333 17.23 0 0 0-8.91 2.65c-60.466 37.893-115.09 51.232-154.48 55.28-39.391 4.047-62.136-.997-62.136-.997a17.333 17.23 0 0 0-3.516-.392c-102.998-.867-160.51 12.968-207.87 36.745s-82.829 55.352-147.593 90.8a17.333 17.23 0 0 0-3.739 27.432c86.54 83.778 226.076 98.491 349.327 62.41 123.25-36.082 233.18-124.676 256.308-253.683a17.333 17.23 0 0 0-17.39-20.246" style="baseline-shift:baseline;display:inline;overflow:visible;vector-effect:none;fill:url(#e);fill-opacity:1;stroke-width:3.23988;stroke-linecap:round;stroke-linejoin:round;stop-color:#000" transform="translate(-219.445 -1426.148)"/>
  <path d="M865.522 1426.149a17.333 17.23 0 0 0-11.545 4.315L454.391 1781.56a17.333 17.23 0 0 0 11.139 30.132c59.854 1.166 119.913 3.764 180.603-11.861 60.503-15.577 120.854-49.908 179.43-119.097.16-.168 31.572-33.317 54.417-80.018 22.903-46.82 38.112-110.953-.184-167.02a17.333 17.23 0 0 0-12.18-7.414 17.333 17.23 0 0 0-2.094-.132z" style="baseline-shift:baseline;display:inline;overflow:visible;vector-effect:none;fill:url(#f);fill-opacity:1;stroke-width:3.23988;stroke-linecap:round;stroke-linejoin:round;stop-color:#000" transform="translate(-219.445 -1426.148)"/>
  <path d="M390.914 1627.569c19.533 27.86 63.195 18.332 69.2-15.094 6.004-33.426-31.642-57.386-59.668-37.97-17.372 12.037-21.64 35.794-9.532 53.064" style="display:inline;fill:#173924;fill-opacity:.95;stroke-width:3.18569" transform="translate(-219.445 -1426.148)"/>
</svg>
