<svg xmlns="http://www.w3.org/2000/svg" xmlns:xlink="http://www.w3.org/1999/xlink" xml:space="preserve" width="840.233" height="602.645" viewBox="0 0 840.233 602.645">
  <defs>
    <linearGradient id="c" x1="870.494" x2="864.994" y1="379.058" y2="306.886" gradientTransform="matrix(3.24955 0 0 3.23025 334.206 -91.112)" gradientUnits="userSpaceOnUse" spreadMethod="pad">
      <stop offset="0" style="stop-color:#1b432a;stop-opacity:1"/>
      <stop offset="1" style="stop-color:#2d6a46;stop-opacity:1"/>
    </linearGradient>
    <linearGradient xlink:href="#a" id="d" x1="992.43" x2="986.256" y1="388.363" y2="365.316" gradientTransform="matrix(3.24955 0 0 3.23025 334.195 -91.112)" gradientUnits="userSpaceOnUse"/>
    <linearGradient id="a">
      <stop offset="0" style="stop-color:#347f3f;stop-opacity:1"/>
      <stop offset="1" style="stop-color:#539739;stop-opacity:1"/>
    </linearGradient>
    <linearGradient xlink:href="#b" id="e" x1="961.386" x2="943.411" y1="357.689" y2="333.536" gradientTransform="matrix(3.24955 0 0 3.23025 334.207 -90.363)" gradientUnits="userSpaceOnUse"/>
    <linearGradient id="b">
      <stop offset="0" style="stop-color:#b0da39;stop-opacity:1"/>
      <stop offset="1" style="stop-color:#e7f657;stop-opacity:1"/>
    </linearGradient>
  </defs>
  <path d="M3134.916 836.55c-92.787.25-156.682 72.885-173.762 148.6-1.58 1.143-3.161 2.286-5.397 3.887a7236 7236 0 0 1-22.087 15.752c-16.014 11.39-31.947 22.668-31.947 22.668a17.2 17.2 0 0 0-7.265 14.61 17.2 17.2 0 0 0 8.23 14.091l73.603 45.058c98.769 132.22 187.606 210.26 266.587 252.278 79.561 42.324 149.474 47.643 206.036 34.636 113.13-26.016 171.94-122.455 171.94-122.455 4.179-6.758 3.168-15.484-2.443-21.126l-277.444-279.05c-1.167-1.351-27.705-31.839-65.752-63.162-38.89-32.021-88.779-65.924-140.3-65.787" style="display:inline;fill:url(#c);stroke:none;stroke-width:.998963" transform="translate(-2894.448 -791.742)"/>
  <path d="M3717.022 960.203a17.333 17.23 0 0 0-8.91 2.65c-60.467 37.894-115.09 51.233-154.481 55.28s-62.135-.997-62.135-.997a17.333 17.23 0 0 0-3.516-.39c-102.998-.869-160.51 12.967-207.87 36.743s-82.83 55.353-147.593 90.8a17.333 17.23 0 0 0-3.739 27.433c86.54 83.778 226.076 98.49 349.327 62.41 123.25-36.082 233.18-124.676 256.307-253.683a17.333 17.23 0 0 0-17.39-20.246" style="baseline-shift:baseline;display:inline;overflow:visible;vector-effect:none;fill:url(#d);fill-opacity:1;stroke-width:3.23988;stroke-linecap:round;stroke-linejoin:round;stop-color:#000" transform="translate(-2894.448 -791.742)"/>
  <path d="M3540.524 791.743a17.333 17.23 0 0 0-11.545 4.315l-399.586 351.094a17.333 17.23 0 0 0 11.138 30.133c59.855 1.166 119.914 3.764 180.604-11.861 60.503-15.577 120.854-49.908 179.43-119.097.16-.168 31.572-33.318 54.417-80.018 22.903-46.82 38.112-110.953-.184-167.02a17.333 17.23 0 0 0-12.18-7.414 17.333 17.23 0 0 0-2.094-.132" style="baseline-shift:baseline;display:inline;overflow:visible;vector-effect:none;fill:url(#e);fill-opacity:1;stroke-width:3.23988;stroke-linecap:round;stroke-linejoin:round;stop-color:#000" transform="translate(-2894.448 -791.742)"/>
  <path d="M3065.916 992.415c19.535 27.858 63.193 18.33 69.198-15.093 6.006-33.427-31.639-57.39-59.665-37.973-17.372 12.039-21.641 35.795-9.533 53.066" style="display:inline;fill:#fff;fill-opacity:.95;fill-rule:nonzero;stroke:none;stroke-width:.998963" transform="translate(-2894.448 -791.742)"/>
</svg>
